<?xml version="1.0" encoding="UTF-8" standalone="no"?>
<svg
   id="Calque_1"
   data-name="Calque 1"
   viewBox="0 0 225.84 262.38"
   version="1.1"
   sodipodi:docname="logo.svg"
   inkscape:version="1.1 (c68e22c387, 2021-05-23)"
   inkscape:export-filename="C:\Users\Pierre\Work\bioRgeo\bioRgeo\man\figures\logo.png"
   inkscape:export-xdpi="96"
   inkscape:export-ydpi="96"
   xmlns:inkscape="http://www.inkscape.org/namespaces/inkscape"
   xmlns:sodipodi="http://sodipodi.sourceforge.net/DTD/sodipodi-0.dtd"
   xmlns="http://www.w3.org/2000/svg"
   xmlns:svg="http://www.w3.org/2000/svg">
  <sodipodi:namedview
     id="namedview275"
     pagecolor="#ffffff"
     bordercolor="#666666"
     borderopacity="1.0"
     inkscape:pageshadow="2"
     inkscape:pageopacity="0.0"
     inkscape:pagecheckerboard="0"
     showgrid="false"
     inkscape:zoom="1.4142136"
     inkscape:cx="83.438601"
     inkscape:cy="173.94827"
     inkscape:window-width="1920"
     inkscape:window-height="974"
     inkscape:window-x="-11"
     inkscape:window-y="-11"
     inkscape:window-maximized="1"
     inkscape:current-layer="Calque_1" />
  <defs
     id="defs4">
    <style
       id="style2">.cls-1{fill:#51bcbe;}.cls-2{fill:#cae7e8;}.cls-3{fill:#fdfdfd;}.cls-10,.cls-11,.cls-12,.cls-13,.cls-14,.cls-15,.cls-16,.cls-17,.cls-18,.cls-19,.cls-20,.cls-21,.cls-22,.cls-23,.cls-24,.cls-25,.cls-26,.cls-27,.cls-28,.cls-32,.cls-33,.cls-34,.cls-35,.cls-38,.cls-4,.cls-5,.cls-6,.cls-7,.cls-8,.cls-9{fill:none;}.cls-37,.cls-4{stroke:#000;}.cls-10,.cls-11,.cls-12,.cls-13,.cls-14,.cls-15,.cls-16,.cls-17,.cls-18,.cls-19,.cls-20,.cls-21,.cls-22,.cls-23,.cls-24,.cls-25,.cls-26,.cls-27,.cls-28,.cls-32,.cls-33,.cls-34,.cls-38,.cls-4,.cls-5,.cls-6,.cls-7,.cls-8,.cls-9{stroke-miterlimit:10;}.cls-5{stroke:#f18911;}.cls-11,.cls-12,.cls-13,.cls-14,.cls-15,.cls-16,.cls-17,.cls-18,.cls-19,.cls-20,.cls-21,.cls-22,.cls-23,.cls-24,.cls-25,.cls-26,.cls-27,.cls-28,.cls-5,.cls-6,.cls-7,.cls-8,.cls-9{stroke-width:0.5px;}.cls-6{stroke:#f59d35;}.cls-7{stroke:#eb6018;}.cls-8{stroke:#efc029;}.cls-10,.cls-9{stroke:#eaa711;}.cls-10{stroke-width:0.25px;}.cls-11{stroke:#e75b13;}.cls-12{stroke:#e67717;}.cls-13{stroke:#f2bc11;}.cls-14{stroke:#efcf10;}.cls-15{stroke:#ed6d18;}.cls-16{stroke:#e8451a;}.cls-17{stroke:#e6361a;}.cls-18{stroke:#f2b612;}.cls-19{stroke:#ef7a13;}.cls-20{stroke:#e8431c;}.cls-21{stroke:#e5901d;}.cls-22{stroke:#e16c1e;}.cls-23{stroke:#f18d15;}.cls-24{stroke:#c93717;}.cls-25{stroke:#eccc0c;}.cls-26{stroke:#f4e181;}.cls-27{stroke:#f4c708;}.cls-28{stroke:#f4de7e;}.cls-29{fill:#ffcd31;}.cls-30,.cls-37{fill:#f1842b;}.cls-31{fill:#f4c83d;}.cls-32{stroke:#020304;}.cls-33{stroke:#020202;}.cls-34{stroke:#050505;}.cls-36{isolation:isolate;}.cls-37{stroke-linecap:round;stroke-linejoin:round;}.cls-38{stroke:#1d1d1b;}</style>
  </defs>
  <g
     id="Calque_3"
     data-name="Calque 3">
    <path
       class="cls-1"
       d="M29.67,95.08a117.28,117.28,0,0,1-10.09-9.85,74.68,74.68,0,0,1-9.32-14.74A123.35,123.35,0,0,0,29.67,95.08Z"
       id="path6" />
    <path
       class="cls-1"
       d="M41.91,105.5c-3.58-3.34-7.61-6.8-12.17-10.36l-.07-.06A123.35,123.35,0,0,1,10.26,70.49h0l18-10.6c2.3-1.35,4.68-2.75,7.07-4.17l2.06-1.21L88,24.69l2.65-1.56c1.48-.87,3-1.73,4.39-2.59l1.72-1c3.14-1.84,6.12-3.6,8.74-5.15L113,10l50.36,29.67.77.45.71.42c-20.74,4-36.25,9.48-43.42,13.52a92.15,92.15,0,0,0-8.24,5.28,78.56,78.56,0,0,0-9.88,8.52,92,92,0,0,0-7.6,9C90.36,84.15,83,100.21,77.28,122A95.91,95.91,0,0,1,41.91,105.5Z"
       id="path8" />
    <path
       class="cls-1"
       d="M176,47.08l-3.2-1.89-4.39-2.58h0a9.78,9.78,0,0,0-3.57-2.1h0l-.71-.42-.77-.45-50.4-29.7h0l-7.47,4.41L96.71,19.5,95,20.5,90.6,23.09,88,24.65,37.37,54.47l-2.06,1.21-7.07,4.17-18,10.59h0a74.68,74.68,0,0,0,9.32,14.74A117.28,117.28,0,0,0,29.65,95l.07.06a115.58,115.58,0,0,0,12.17,10.36C72.51,134,69.56,153.89,69.56,153.89a26.55,26.55,0,0,1-3.48,9.5,62.18,62.18,0,0,1-6.19,7.82c-10.51,10.41-28.5,18.34-49.67,20.2h0l103.14,61h0q51.12-30.47,102.23-61h0A63.62,63.62,0,0,1,176,176.34h0a59.78,59.78,0,0,1-21.23-40.53c-.77-9.71,4-23.47,10.24-34.61a44,44,0,0,0,7-10.59,37,37,0,0,1,5.5-5.68c14.8-11.91,31-14,38-14.54L184.06,51.87l-2.41-1.42Zm49.41,18.7V196.11l-112,65.67L.5,196.11V65.78L112.91.58Z"
       id="path10"
       style="fill:#b0e2f1;fill-opacity:1" />
    <path
       class="cls-2"
       d="M77.23,122c2,.46,64.12.65,83.61-16.61a57.85,57.85,0,0,0-6.06,30.45A59.63,59.63,0,0,0,176,176.39h0a63.62,63.62,0,0,0,39.58,15.08q-51.1,30.48-102.23,61l-103.12-61A63.6,63.6,0,0,0,59.9,171.26a39,39,0,0,0,6.19-7.82A58,58,0,0,0,76,134.35C76.2,130.07,76.63,126,77.23,122Z"
       id="path12" />
    <path
       class="cls-1"
       d="M77.23,122c-.6,4-1,8-1.27,12.33a58,58,0,0,1-9.86,29.09,26.55,26.55,0,0,0,3.48-9.5s3-19.86-27.67-48.44A96,96,0,0,0,77.23,122Z"
       id="path14" />
    <path
       class="cls-1"
       d="M215.62,191.47h0A63.62,63.62,0,0,1,176,176.39a63.62,63.62,0,0,0,39.6,15.07Z"
       id="path16" />
    <path
       class="cls-2"
       d="M215.62,70.44c-16.89.54-39-20.55-47.25-27.83l4.39,2.58,3.2,1.89,5.81,3.42,2.41,1.42Z"
       id="path18" />
    <path
       class="cls-2"
       d="M168.37,42.61c8.29,7.28,30.36,28.37,47.25,27.83-7.09.49-23.24,2.63-38,14.54a37,37,0,0,0-5.5,5.68c.28-.6.55-1.22.81-1.84a62.75,62.75,0,0,0-12,16.58h0C141.44,122.66,79.3,122.47,77.32,122,83,100.18,90.4,84.12,95.71,76.82a92,92,0,0,1,7.6-9,78.56,78.56,0,0,1,9.88-8.52A92.15,92.15,0,0,1,121.43,54c7.17-4,22.68-9.49,43.42-13.52h0l1.77,1,1.56.92.24.14Z"
       id="path20" />
    <path
       class="cls-1"
       d="M184.18,51.92l-2.41-1.42Z"
       id="path22" />
    <path
       class="cls-1"
       d="M176,47.08l-3.2-1.89Z"
       id="path24" />
    <path
       class="cls-2"
       d="M154.79,135.86A59.78,59.78,0,0,0,176,176.39a59.63,59.63,0,0,1-21.24-40.53,57.85,57.85,0,0,1,6.06-30.45h0a51.15,51.15,0,0,0,4.18-4.15C158.77,112.39,154,126.15,154.79,135.86Z"
       id="path26" />
    <path
       class="cls-3"
       d="M172.89,88.78c-.26.62-.53,1.24-.81,1.84a77,77,0,0,0-7,10.59,51.15,51.15,0,0,1-4.18,4.15A62.94,62.94,0,0,1,172.89,88.78Z"
       id="path28" />
    <path
       class="cls-1"
       d="M172.08,90.66a44,44,0,0,1-7,10.59A77,77,0,0,1,172.08,90.66Z"
       id="path30" />
    <path
       class="cls-3"
       d="M168.37,42.6l-.24-.14-1.56-.92-1.77-1A9.76,9.76,0,0,1,168.37,42.6Z"
       id="path32" />
    <path
       class="cls-3"
       d="M168.12,42.46l-1.56-.92Z"
       id="path34" />
    <path
       class="cls-1"
       d="M164.05,40.06l-.77-.45Z"
       id="path36" />
    <path
       class="cls-2"
       d="M113.37,252.44h0l-103.14-61h0Z"
       id="path38" />
    <path
       class="cls-1"
       d="M112.91,9.93h0l-7.48,4.4Z"
       id="path40" />
    <path
       class="cls-1"
       d="M96.7,19.49l8.74-5.15C102.82,15.89,99.84,17.65,96.7,19.49Z"
       id="path42" />
    <path
       class="cls-1"
       d="M95,20.5l1.72-1Z"
       id="path44" />
    <path
       class="cls-1"
       d="M90.59,23.09,95,20.5C93.54,21.36,92.07,22.22,90.59,23.09Z"
       id="path46" />
    <path
       class="cls-1"
       d="M90.59,23.09l-2.65,1.56Z"
       id="path48" />
    <path
       class="cls-2"
       d="M59.91,171.26a62.18,62.18,0,0,0,6.19-7.82A39,39,0,0,1,59.91,171.26Z"
       id="path50" />
    <path
       class="cls-2"
       d="M10.24,191.46c21.17-1.86,39.16-9.79,49.67-20.2a63.6,63.6,0,0,1-49.65,20.21Z"
       id="path52" />
    <path
       class="cls-1"
       d="M35.28,55.68l2.06-1.21Z"
       id="path54" />
    <path
       class="cls-1"
       d="M28.21,59.85l7.07-4.17C32.89,57.1,30.51,58.5,28.21,59.85Z"
       id="path56" />
    <path
       class="cls-1"
       d="M29.74,95.14c4.56,3.56,8.59,7,12.17,10.36A115.58,115.58,0,0,1,29.74,95.14Z"
       id="path58" />
    <path
       class="cls-1"
       d="M10.23,70.44l18-10.59-18,10.6Z"
       id="path60" />
    <polygon
       class="cls-4"
       points="225.34 65.76 225.34 196.11 113.41 261.8 0.5 196.11 0.5 65.76 112.91 0.58 225.34 65.76"
       id="polygon62" />
    <path
       class="cls-4"
       d="M113.37,252.44h0l-103.14-61h0"
       id="path64" />
    <line
       class="cls-4"
       x1="163.28"
       y1="39.61"
       x2="164.05"
       y2="40.06"
       id="line66" />
    <path
       class="cls-4"
       d="M29.74,95.14l-.07-.06a117.28,117.28,0,0,1-10.09-9.85,74.68,74.68,0,0,1-9.32-14.74h0l18-10.6c2.3-1.35,4.68-2.75,7.07-4.17l2.06-1.21L88,24.69l2.65-1.56c1.48-.87,3-1.73,4.39-2.59l1.72-1c3.14-1.84,6.12-3.6,8.74-5.15L113,10l50.36,29.67.77.45.71.42h0l1.77,1,1.56.92.24.14h0l4.39,2.58,3.2,1.89,5.81,3.42,2.41,1.42,31.44,18.52c-7.09.49-23.24,2.63-38,14.54a37,37,0,0,0-5.5,5.68,77,77,0,0,0-7,10.59c-6.26,11.14-11,24.9-10.24,34.61a59.78,59.78,0,0,0,21.23,40.53h0a63.62,63.62,0,0,0,39.6,15.07h0q-51.1,30.48-102.23,61l-103.12-61h0c21.17-1.86,39.16-9.79,49.67-20.2a39,39,0,0,0,6.19-7.82,26.55,26.55,0,0,0,3.48-9.5s3-19.86-27.67-48.44C38.37,102.16,34.3,98.7,29.74,95.14Z"
       id="path68" />
  </g>
  <path
     class="cls-1"
     d="M72.62,123.78A12,12,0,0,1,69.69,127l2.14.87c-.86-3.16,1.12-6.51-.24-9.46a3.69,3.69,0,0,0-4.59-2,1.28,1.28,0,0,0-.87,1.57,1.39,1.39,0,0,0,.12.28c.82,1.37,2.26,2.19,3.09,3.52.7,1.13.49,2.36,1.82,3a2.64,2.64,0,0,0,2.57-.11A4.87,4.87,0,0,0,75,123.42c1-1.12,0-.72,1.4-.8l-1.46-1.47c0,.51-.05,1-.06,1.52-.05,1.42,2.18,2.15,2.81.76a3,3,0,0,0,.39-1.72,2.9,2.9,0,0,0-.3-1c-.29-.68-.39-.76-.3-.25l-2.66-1.1.16,1.8a1.48,1.48,0,0,0,2.9.39,11.17,11.17,0,0,0,.43-2.13c.16-1.3-1.56-1.66-2.35-1a3.66,3.66,0,0,0-1.19,2.51c-.39,2.26-.56,4.52-1.05,6.77l2.86.39c0-.05.14-2.86.11-2.85l-1.05-1.81a3,3,0,0,0-1.53,2.11c-.65,2.19-.84,4.1-1.93,6.21l2.08-.55c-1.46-.8-1.56.06-1.37-1.7.15-1.35.46-1.26,1-2.28a2.48,2.48,0,0,0-.4-2.94c-1.18-1.51-3.54.71-2.15,2.16-1.39-1.46-1.74,3.58-1.73,4.15,0,2,1.45,2.42,3.15,3.24a1.55,1.55,0,0,0,2.09-.55,17.31,17.31,0,0,0,1.33-3.82c.23-1.14,0-3.58.77-4.39.57-.58.2-1.9-.74-1.78-2.16.29-2.11,2.61-2.45,4.41s2.43,2.62,2.8.78c.25-1.2.46-2.4.59-3.62.09-.81-.24-3.78.51-4.28l-2-1.55a6.06,6.06,0,0,1-.56,1.7l2.89.4v-1.8a1.58,1.58,0,0,0-1.61-1.55,1.49,1.49,0,0,0-.74.2,2.28,2.28,0,0,0-1.26,1.8c-.13.77.81,2,.6,2.57l3,.4v-1.52a1.49,1.49,0,0,0-1.52-1.46,1.27,1.27,0,0,0-.34,0,6.11,6.11,0,0,0-2.19.44c-.78.43-1,1.91-1.62,1.52-.31-.18-.71-1.51-1-1.89-.83-1.06-2-1.77-2.76-2.88l-.75,1.85c1.08-.44,2.09,1.45,2.13,2.27a14.41,14.41,0,0,1-.4,3.27c-.22,1.28-.27,2.57-.43,3.86a1.47,1.47,0,0,0,1.49,1.45,1.53,1.53,0,0,0,.7-.19,14.05,14.05,0,0,0,4-4.2c1-1.62-1.55-3.12-2.57-1.5Z"
     id="path71" />
  <g
     id="Calque_5"
     data-name="Calque 5">
    <path
       style="fill:#549bed;fill-opacity:1;stroke:#000000;stroke-width:1px;stroke-linecap:butt;stroke-linejoin:miter;stroke-opacity:1"
       d="M 10.26,70.49 112.91,9.93 164.84,40.54 c 0,0 -8.215,-0.79 -22.09,3.46 -11,3.625 -28.75,14.5 -28.75,14.5 0,0 -9.375,7.25 -18.5,19 C 91.25,83 85,97.75 85,97.75 L 77.66,120.58 74.411573,144.97217 69.75,147 58.65,124.09 17.5,82.5 10.26,70.49"
       id="path2588"
       sodipodi:nodetypes="ccccccccccccc" />
    <path
       class="cls-5"
       d="M116.69,165.78c0-2.74,40.57-11.48,49.74-11.48"
       id="path73" />
    <path
       class="cls-6"
       d="M117.37,162.15c0-2.18,43.51-15.75,49.51-15.75"
       id="path75" />
    <path
       class="cls-7"
       d="M117.37,162.15c0-1.78,43.22-10.57,49.07-10.57"
       id="path77" />
    <path
       class="cls-7"
       d="M117.67,160.78c0-3,43.62-17.91,50.7-17.91"
       id="path79" />
    <path
       class="cls-7"
       d="M116.69,165.78c0-1.13,46.5-8,52.37-8"
       id="path81" />
    <path
       class="cls-8"
       d="m 115.80612,148.66388 c 0.61044,-3.48378 4.00561,-9.05255 6.91421,-11.06487 1.3937,-0.89745 11.64092,-5.06941 13.27967,-5.31901"
       id="path83"
       sodipodi:nodetypes="ccc" />
    <path
       class="cls-8"
       d="M115.28,145c.15-.8,1.18-5.69,5.64-8.12a10.59,10.59,0,0,1,4.83-1.26"
       id="path85" />
    <path
       class="cls-9"
       d="m 115.80612,148.66388 c 0.3918,-4.09913 1.79071,-11.56307 4.86388,-14.30388 1.76499,-1.5002 3.84721,-2.58062 6.09,-3.16"
       id="path87"
       sodipodi:nodetypes="ccc" />
    <path
       class="cls-10"
       d="M118.62,136.51a4,4,0,0,0-1,1.8"
       id="path89" />
    <path
       class="cls-9"
       d="m 97.94,18.78 c 2,0.59 35.75,11.34 44.46,44.11 7.2,27.1 -17.74404,66.58239 -44.514039,81.95239"
       id="path91"
       sodipodi:nodetypes="ccc" />
    <path
       class="cls-11"
       d="m 108.1,12.78 c 24,7.35 41.27,27 43.39,49.08 2.81,29.14 -51.76,51.18 -87.12,55.33"
       id="path93"
       sodipodi:nodetypes="ccc" />
    <path
       class="cls-11"
       d="m 103.73,15.34 c 3,0.87 33.67,10.21 42.71,37.92 9.04,27.71 -32.40907,76.17503 -66.409068,91.37503"
       id="path95"
       sodipodi:nodetypes="csc" />
    <path
       class="cls-12"
       d="m 159,37.07 c 4.3,5.75 15.42,22.27 12,41.19 -4.86,26.68 -64.88,41.29999 -105.900002,38.42999"
       id="path97"
       sodipodi:nodetypes="ccc" />
    <path
       class="cls-13"
       d="m 58.65,124.09 c 17.14,0 136.52,-24.25 136.52,-33.54"
       id="path99"
       sodipodi:nodetypes="cc" />
    <path
       class="cls-14"
       d="M 93.577864,144.53693 C 113.99486,142.51922 147.71302,124.23778 164.63,112.63 c 11.48032,-7.96765 21.48345,-17.87603 29.56,-29.28"
       id="path101"
       sodipodi:nodetypes="ccc" />
    <path
       class="cls-15"
       d="M77.24,128.09c33.27,6.88,58.65,2.58,72.47-.94,14.54-3.7,46.69-32.26,47-33.7"
       id="path103" />
    <path
       class="cls-16"
       d="M64.43,113.21c9.47,3,40.19,11.4,74.27-2.83,22-9.17,59.44-5.3,66.15-13.57"
       id="path105" />
    <path
       class="cls-17"
       d="M57.55,125.1A5.21,5.21,0,0,1,59,126.87c1.24,2.45.34,5.87-2.14,8.74"
       id="path117" />
    <path
       class="cls-17"
       d="m 56.14,126.2 c 1.19,0 8.5,22.5 8.5,23.5"
       id="path119"
       sodipodi:nodetypes="cc" />
    <path
       class="cls-18"
       d="M97.94,188.67c-2.29,5.75-2.72,10.26-1,11.39.41.27,1.18.5,2.67,0"
       id="path121" />
    <path
       class="cls-18"
       d="M96.18,189.44a15.47,15.47,0,0,0-3,11.61A15.18,15.18,0,0,0,98,209.83"
       id="path123" />
    <path
       class="cls-19"
       d="m 80.51,191.94 c -2.037516,8.62501 -0.600753,17.70535 4,25.28 8.19,13.05 70.04132,8.75282 71.89132,8.97282"
       id="path125"
       sodipodi:nodetypes="ccc" />
    <path
       class="cls-19"
       d="m 76.72,191.94 c -4.875761,13.01794 -1.604656,27.68693 8.34,37.4 13.89,13.3 67.32823,-0.79239 68.21823,-1.03239"
       id="path127"
       sodipodi:nodetypes="ccc" />
    <path
       class="cls-20"
       d="M73,190.37a46.42,46.42,0,0,0-3.7,36"
       id="path129" />
    <path
       class="cls-20"
       d="M75.31,191a34.17,34.17,0,0,0,0,38.48"
       id="path131" />
    <path
       class="cls-20"
       d="M50.73,168.48a9.2,9.2,0,0,0-7.36,2c-3.12,2.69-3.44,6.56-3.56,8.6a15.87,15.87,0,0,0,2,8.61"
       id="path133" />
    <path
       class="cls-20"
       d="M56.14,178.58a27.35,27.35,0,0,0-10,33.57"
       id="path135" />
    <path
       class="cls-20"
       d="M52.47,172.78a24,24,0,0,0-7.65,12.52,9.34,9.34,0,0,1-2.7-5.51c-.41-4.43,3-9.13,8.61-11.23"
       id="path137" />
    <path
       class="cls-20"
       d="M50,162.55a17.94,17.94,0,0,0-9.33,5c-5.87,6.19-6.5,17-1.33,26.94"
       id="path139" />
    <path
       class="cls-21"
       d="M49.63,164.37a14.24,14.24,0,0,0-6.77,3.32c-5.31,4.81-6.42,14-2.77,23"
       id="path141" />
    <path
       class="cls-21"
       d="M53.92,175.38a26,26,0,0,0-7.5,9.24"
       id="path143" />
    <path
       class="cls-21"
       d="M40.3,199.63a17.77,17.77,0,0,0,1,10.2"
       id="path145" />
    <path
       class="cls-21"
       d="M69.37,189.5a20.49,20.49,0,0,0-10.08-1.18c-9.21,1.37-16.8,10-18,21.51"
       id="path147" />
    <path
       class="cls-21"
       d="M39.5,196l-1.68,12.39"
       id="path149" />
    <path
       class="cls-22"
       d="M39.46,193.23l-5.3,12.38"
       id="path151" />
    <path
       class="cls-22"
       d="m 51.386485,160.58645 c 0,2.12 -45.8989851,17.05855 -50.1789851,17.05855"
       id="path153"
       sodipodi:nodetypes="cc" />
    <path
       class="cls-23"
       d="M 53.596194,157.74678 C 46.522483,161.71564 33.819796,161.49145 25.74,160.78"
       id="path155"
       sodipodi:nodetypes="cc" />
    <path
       class="cls-23"
       d="m 23.43,167.11 c 8.934784,-1.94394 22.141593,-4.97973 30.166194,-9.36322"
       id="path157"
       sodipodi:nodetypes="cc" />
    <path
       class="cls-23"
       d="m 10.22,191.41 c 0,-2.48 36.886485,-30.82355 41.166485,-30.82355"
       id="path159"
       sodipodi:nodetypes="cc" />
    <path
       class="cls-23"
       d="M 51.386485,160.58645 C 47.106485,160.58645 10.27,188.09 10.27,191.47 l 103.14,61"
       id="path161"
       sodipodi:nodetypes="ccc" />
    <path
       class="cls-23"
       d="M39.37,194.51a44.84,44.84,0,0,1-26.19-1.29"
       id="path163" />
    <path
       class="cls-23"
       d="M39.37,194.51a21.25,21.25,0,0,1-8.07,3.39,21.78,21.78,0,0,1-13-1.67"
       id="path165" />
    <path
       class="cls-24"
       d="m 10.53,116.68999 c 0.19,1.6 4.29,34.93501 20.735,36.84001 8.4,0.375 17.57,-7.87 25.595,-17.92"
       id="path167"
       sodipodi:nodetypes="ccc" />
    <path
       class="cls-24"
       d="m 25.19,159.36 c 8.113449,0.92446 22.249159,0.13142 29.732019,-3.13806"
       id="path169"
       sodipodi:nodetypes="cc" />
    <path
       class="cls-25"
       d="M86.82,191.94a40.7,40.7,0,0,0-3.28,30.84c4.87,16.06,18.08,22.94,20.33,24.06"
       id="path171" />
    <path
       class="cls-25"
       d="M99.66,188.12a40.77,40.77,0,0,0,2.18,7.24"
       id="path175" />
    <path
       class="cls-25"
       d="M101.83,186.51c0,.5,2.77,4.48,3.12,4.48"
       id="path177" />
    <path
       class="cls-25"
       d="M105,184.62a13.81,13.81,0,0,0,2.77,3.5"
       id="path179" />
    <path
       class="cls-25"
       d="M107.72,181.78a12.16,12.16,0,0,0,2.73,2.86"
       id="path181" />
    <path
       class="cls-26"
       d="M106,183.36a13.25,13.25,0,0,0,3.07,3"
       id="path183" />
    <path
       class="cls-26"
       d="M100.75,187.18c0,.42,3.74,3.81,4.2,3.81"
       id="path185" />
    <path
       class="cls-26"
       d="M58.24,181.78a21.54,21.54,0,0,0-8.47,8.77c-4.05,8-2.34,18.42,4.15,26.78"
       id="path187" />
    <path
       class="cls-21"
       d="M101.83,16.46c26.89-.32,50.87,16.72,59,41.6,8.74,26.7-2.62,56.7-27.56,71.41"
       id="path189" />
    <path
       class="cls-21"
       d="m 101.83,16.46 c 22.44889,9.729786 37.13869,31.683109 37.56945,56.146058 0.43076,24.46295 -54.842775,37.727452 -76.935197,48.241552"
       id="path191"
       sodipodi:nodetypes="csc" />
    <path
       class="cls-27"
       d="M64.65,106.69c7.43,2.81,44.2,15.85,81.29-2.66C163,95.5,193.06,103,199,95"
       id="path193" />
    <path
       class="cls-27"
       d="M207.9,96.78c-1,9-31.85,7.32-44.53,25.41a99,99,0,0,1-45.7,35.36"
       id="path195" />
    <path
       class="cls-28"
       d="M117.62,152.08c6.78-.49,38.67-3.5,61.67-30.37A87.54,87.54,0,0,0,199,78.42"
       id="path197" />
    <path
       class="cls-28"
       d="M 125.94017,149.60759 C 155.08302,146.42579 189.06409,112.20441 194.19,83.34"
       id="path199"
       sodipodi:nodetypes="cc" />
    <path
       class="cls-28"
       d="M136,132.28a66.89,66.89,0,0,0,58.22-48.94"
       id="path201" />
    <path
       class="cls-16"
       d="m 64.37,117.19 13.61,5.56"
       id="path203"
       sodipodi:nodetypes="cc" />
  </g>
  <circle
     class="cls-29"
     cx="204.85001"
     cy="86.150002"
     r="10.66"
     id="circle206" />
  <circle
     class="cls-29"
     cx="179.75"
     cy="149.8"
     r="13.32"
     id="circle208" />
  <circle
     class="cls-30"
     cx="138.83817"
     cy="126.50182"
     r="5.3000002"
     id="circle212" />
  <circle
     class="cls-29"
     cx="59.139999"
     cy="62.169998"
     r="13.32"
     id="circle216" />
  <path
     class="cls-31"
     d="M 37.81,76.22 A 28.85,28.85 0 1 1 9,105.08 v 0 A 28.85,28.85 0 0 1 37.81,76.22 Z"
     id="path218" />
  <circle
     class="cls-29"
     cx="19.51"
     cy="162.14999"
     r="6.3299999"
     id="circle220" />
  <g
     id="g958"
     transform="matrix(0.96215174,0.27120287,-0.2725898,0.95725635,-91.579876,-152.92693)">
    <ellipse
       class="cls-30"
       cx="-245.49947"
       cy="350.43173"
       transform="matrix(0.27866103,-0.96038952,0.99590215,0.09043728,0,0)"
       id="circle214"
       rx="32.857956"
       ry="56.639614"
       style="stroke-width:1.25553" />
    <ellipse
       class="cls-4"
       cx="-244.79254"
       cy="349.95773"
       transform="matrix(0.27691271,-0.96089508,0.99584623,0.09105105,0,0)"
       id="circle222"
       rx="32.936001"
       ry="56.421154"
       style="stroke-width:1.2546" />
  </g>
  <circle
     class="cls-33"
     cx="179.75"
     cy="149.8"
     r="13.32"
     id="circle226" />
  <circle
     class="cls-34"
     cx="59.139999"
     cy="62.169998"
     r="13.32"
     id="circle228" />
  <circle
     class="cls-34"
     cx="19.51"
     cy="162.14999"
     r="6.3299999"
     id="circle230" />
  <circle
     class="cls-4"
     cx="139.01495"
     cy="126.85538"
     r="5.3000002"
     id="circle232" />
  <circle
     class="cls-33"
     cx="204.85001"
     cy="86.150002"
     r="10.66"
     id="circle234" />
  <path
     class="cls-33"
     d="M 37.81,76.22 A 28.85,28.85 0 1 1 9,105.08 v 0 A 28.85,28.85 0 0 1 37.81,76.22 Z"
     id="path236" />
  <g
     id="Calque_6"
     data-name="Calque 6">
    <rect
       class="cls-35"
       x="10.53"
       y="93.45"
       width="54.57"
       height="23.24"
       id="rect239" />
    <g
       class="cls-36"
       id="g247">
      <path
         d="M17.66,119.55V88.3H20.9v17.21H21a6.74,6.74,0,0,1,5.87-3.31,7.11,7.11,0,0,1,5.72,2.61,9.31,9.31,0,0,1,2.2,6.21,9.9,9.9,0,0,1-2.16,6.46,7.22,7.22,0,0,1-5.9,2.64,6.3,6.3,0,0,1-3.23-.86,7.75,7.75,0,0,1-2.5-2.34H20.9v2.63Zm8.39-2.31a4.91,4.91,0,0,0,4-1.76,6.62,6.62,0,0,0,1.46-4.36,6.42,6.42,0,0,0-1.48-4.3,5,5,0,0,0-4-1.74,4.74,4.74,0,0,0-3.87,1.78,6.53,6.53,0,0,0-1.46,4.26,6.7,6.7,0,0,0,1.44,4.32A4.72,4.72,0,0,0,26.05,117.24Z"
         id="path241" />
      <path
         d="M38.68,93.39a2.15,2.15,0,0,1,1.59-.66,2.13,2.13,0,0,1,1.58.66A2.24,2.24,0,0,1,42.5,95a2.22,2.22,0,0,1-2.23,2.19,2.14,2.14,0,0,1-1.59-.65A2.09,2.09,0,0,1,38,95,2.23,2.23,0,0,1,38.68,93.39Zm3.21,9.31v16.85H38.65V102.7Z"
         id="path243" />
      <path
         d="m 111.72225,169.98904 a 2.15,2.15 0 0 1 1.59,-0.66 2.13,2.13 0 0 1 1.58,0.66 2.24,2.24 0 0 1 0.65,1.61 2.22,2.22 0 0 1 -2.23,2.19 2.14,2.14 0 0 1 -1.59,-0.65 2.09,2.09 0 0 1 -0.68,-1.54 2.23,2.23 0 0 1 0.68,-1.61 z m 3.21,9.31 v 16.85 h -3.24 v -16.85 z"
         id="path243-0" />
      <path
         d="M48.17,104.79a9.18,9.18,0,0,1,12.78,0,9,9,0,0,1-6.39,15.33,9,9,0,0,1-6.39-15.33ZM58.63,107a5.65,5.65,0,0,0-8.14,0,5.89,5.89,0,0,0,0,8.26,5.61,5.61,0,0,0,8.14,0,5.89,5.89,0,0,0,0-8.26Z"
         id="path245" />
      <path
         style="fill:#000000;fill-opacity:1;stroke:none;stroke-width:1px;stroke-linecap:butt;stroke-linejoin:miter;stroke-opacity:1"
         d="m 60.2068,176.36898 -0.0426,-19.21715 3.32518,0.0213 -0.11297,4.21878 c 0.83059,-0.95837 1.09538,-1.19012 1.81948,-1.72255 1.95933,-0.63891 1.93803,-0.66021 4.21682,-0.7241 2.06582,0.25556 2.34268,0.38334 4.3872,1.36301 1.15004,1.78895 1.15005,1.83156 1.61859,3.98256 l -2.47047,0.0213 c 0,0 -0.61762,-1.00096 -1.19264,-1.78896 -0.89448,-0.53242 -2.17764,-0.66678 -3.1786,-0.62419 -2.27879,0.42594 -2.20955,0.47511 -3.97721,1.3057 -0.61762,0.59632 -0.57503,0.55372 -0.93708,1.27782 l -0.21571,11.88648 h -3.24"
         id="path3319"
         sodipodi:nodetypes="ccccccccccccccc" />
      <path
         style="fill:#000000;fill-opacity:1;stroke:none;stroke-width:1px;stroke-linecap:butt;stroke-linejoin:miter;stroke-opacity:1"
         d="m 141.09544,199.39904 -0.0426,-19.21715 3.32518,0.0213 -0.11297,2.74141 c 1.10166,-0.59695 1.12853,-0.62155 1.81948,-0.74518 2.04772,-0.42899 2.11481,-0.44747 4.15053,-0.43402 2.2379,0.14494 3.84014,0.87347 5.02851,2.40352 0.16324,0.071 0.66378,1.38206 0.59625,3.53315 0,0 0.12076,10.16071 0.10657,11.65167 l -3.0029,-0.0213 c 0,0 0.0146,-11.62001 -0.25922,-13.31157 -1.70769,-0.86372 -2.7172,-1.12247 -3.69062,-1.1822 -0.95982,0.13057 -1.95349,0.3768 -2.29057,0.46238 -1.14451,0.27107 -1.11439,0.30119 -2.14182,0.71982 l -0.24583,13.37816 h -3.24"
         id="path3319-5"
         sodipodi:nodetypes="cccccccscccccccc" />
    </g>
    <rect
       class="cls-35"
       x="51.23"
       y="138.02"
       width="64.17"
       height="34.86"
       id="rect249" />
    <g
       class="cls-36"
       id="g253"
       transform="translate(-0.66,-1.72)" />
    <rect
       class="cls-35"
       x="100.01"
       y="195.43"
       width="53.56"
       height="28.8"
       id="rect255" />
    <path
       d="m 107.02,169.16 v 16.54 c 0,3.2 -0.6,3.66 -1.79999,5.38 -1.20001,1.72001 -3.33668,2.58667 -6.41001,2.6 -2.13519,0.0836 -4.22135,-0.65349 -5.83,-2.06 -1.54235,-1.43654 -2.38211,-3.47388 -2.3,-5.58 h 3.24 c -0.0718,1.312 0.43212,2.59007 1.38001,3.50001 1.01396,0.87263 2.32376,1.32354 3.66,1.25999 1.83999,0 3.11,-0.55 3.78999,-1.62 0.75555,-1.40294 1.10204,-0.98982 1.00001,-2.58 v -3.2 h -0.0701 c -0.64843,0.95665 -1.50261,1.75616 -2.49999,2.34 -0.97959,0.57227 -2.09554,0.86939 -3.23,0.86 -2.27275,0.0986 -4.45907,-0.87965 -5.90001,-2.64 -1.46144,-1.83006 -2.22677,-4.11896 -2.16,-6.45999 -0.0481,-2.26896 0.73429,-4.47734 2.20001,-6.21001 1.39752,-1.71156 3.51135,-2.67609 5.72,-2.61 2.42685,-0.0289 4.67672,1.26658 5.86999,3.38 h 0.0701 v -2.88001 z m -8.53,14.53999 c 1.53531,0.0717 3.01563,-0.57959 4.00001,-1.75998 0.99038,-1.23308 1.5081,-2.77917 1.45999,-4.36 0.0478,-1.5659 -0.47853,-3.09526 -1.47999,-4.30001 -0.99671,-1.1617 -2.47062,-1.80285 -4.00001,-1.74 -1.49897,-0.0524 -2.93428,0.60779 -3.87,1.78 -0.9764,1.20197 -1.49385,2.71181 -1.46,4.26001 -0.0391,1.56395 0.47037,3.09228 1.44001,4.31999 0.93796,1.19395 2.39301,1.86379 3.90999,1.79999 z"
       id="path257"
       style="isolation:isolate;stroke-width:1"
       sodipodi:nodetypes="cssccccccccccccccccccccccccccccc" />
    <path
       d="m 86.159,175.37043 h -12.85 a 6,6 0 0 0 1.44,3.93 4.53,4.53 0 0 0 3.63,1.65 4.87,4.87 0 0 0 2.9,-0.81 8.16,8.16 0 0 0 2.14,-2.46 l 2.74,1.55 a 8.79,8.79 0 0 1 -7.81,4.6 7.68,7.68 0 0 1 -6,-2.52 9.15,9.15 0 0 1 -2.25,-6.33 9.79,9.79 0 0 1 2.12,-6.55 7.51,7.51 0 0 1 6.08,-2.52 7.08,7.08 0 0 1 5.87,2.5 9.94,9.94 0 0 1 2,6.46 z m -12.66,-2.42 h 9.43 a 5,5 0 0 0 -1.51,-3.08 4.43,4.43 0 0 0 -3.14,-1.14 4.58,4.58 0 0 0 -3.18,1.19 5,5 0 0 0 -1.6,3.03 z"
       id="path259"
       style="isolation:isolate" />
    <path
       d="m 122.67376,183.26086 a 9.08,9.08 0 1 1 -2.61,6.37 8.71,8.71 0 0 1 2.61,-6.37 z m 10.47,2.23 a 5.65,5.65 0 0 0 -8.14,0 5.89,5.89 0 0 0 0,8.26 5.61,5.61 0 0 0 8.14,0 5.89,5.89 0 0 0 0,-8.26 z"
       id="path261"
       style="isolation:isolate" />
  </g>
  <path
     class="cls-4"
     d="m 74.411573,144.97217 c 0.518116,-5.91089 1.98138,-18.87726 4.135663,-27.13527 C 83.754153,97.877234 92.46762,80.010481 102.16,69.44 126.55,43.15 158.1,40.84 164.78,40.5"
     id="path266"
     sodipodi:nodetypes="cscc" />
  <line
     class="cls-33"
     x1="10.23"
     y1="191.47"
     x2="113.37"
     y2="252.45"
     id="line268" />
  <circle
     class="cls-37"
     cx="50.04"
     cy="194.51"
     r="10.66"
     id="circle270" />
  <line
     class="cls-38"
     x1="112.91"
     y1="9.93"
     x2="10.23"
     y2="70.44"
     id="line272" />
</svg>
