<?xml version="1.0" encoding="UTF-8"?>
<svg xmlns="http://www.w3.org/2000/svg" viewBox="0 0 555 395">
  <defs>
    <style>
      .cls-1, .cls-2, .cls-3, .cls-4, .cls-5, .cls-6, .cls-7, .cls-8, .cls-9, .cls-10, .cls-11, .cls-12, .cls-13, .cls-14, .cls-15, .cls-16, .cls-17, .cls-18 {
        stroke-miterlimit: 10;
      }

      .cls-1, .cls-2, .cls-3, .cls-4, .cls-5, .cls-6, .cls-7, .cls-8, .cls-9, .cls-11, .cls-12, .cls-13, .cls-14, .cls-15, .cls-17, .cls-18 {
        stroke: #1d1d1b;
      }

      .cls-1, .cls-4, .cls-5, .cls-7, .cls-8, .cls-9, .cls-11, .cls-12, .cls-13, .cls-14, .cls-15, .cls-18 {
        stroke-width: .5px;
      }

      .cls-1, .cls-6 {
        fill: none;
      }

      .cls-2, .cls-3, .cls-17 {
        stroke-width: .75px;
      }

      .cls-2, .cls-19, .cls-13 {
        fill: #189995;
      }

      .cls-3, .cls-8 {
        fill: #e6da50;
      }

      .cls-4 {
        fill: #92654e;
      }

      .cls-5 {
        fill: #d9b9a7;
      }

      .cls-7, .cls-10 {
        fill: #ece27b;
      }

      .cls-20 {
        fill: #a0d6de;
      }

      .cls-9 {
        fill: #ecdbd2;
      }

      .cls-10, .cls-16 {
        stroke: #030707;
      }

      .cls-11 {
        fill: #c7977f;
      }

      .cls-12, .cls-16 {
        fill: #b6775a;
      }

      .cls-14 {
        fill: #f6f0c3;
      }

      .cls-15 {
        fill: #c0b96f;
      }

      .cls-21 {
        fill: #1d1d1b;
      }

      .cls-17 {
        fill: #a65a3b;
      }

      .cls-18 {
        fill: #f1e9a1;
      }
    </style>
  </defs>
  <g id="Calque_3" data-name="Calque 3">
    <g>
      <polygon class="cls-19" points="405.07 135.86 405.07 266.21 293.14 331.9 180.23 266.21 180.23 135.86 292.64 70.68 405.07 135.86"/>
      <polygon class="cls-6" points="180.23 135.86 292.64 70.68 405.07 135.86 405.07 266.21 293.14 331.9 180.23 266.21 180.23 135.86"/>
    </g>
  </g>
  <g id="Calque_4" data-name="Calque 4">
    <g>
      <path class="cls-20" d="M395.44,140.83v120.9c-34.29,20.21-68.59,40.42-102.89,60.63l-102.69-60.63v-120.9l102.69-59.98,102.89,59.98Z"/>
      <g>
        <line class="cls-6" x1="189.86" y1="140.83" x2="189.86" y2="261.73"/>
        <line class="cls-6" x1="189.86" y1="140.83" x2="292.55" y2="80.85"/>
        <line class="cls-6" x1="395.44" y1="140.83" x2="292.55" y2="80.85"/>
        <path class="cls-6" d="M395.44,140.83v120.9"/>
        <line class="cls-6" x1="189.86" y1="261.73" x2="292.55" y2="322.36"/>
        <path class="cls-6" d="M292.55,322.36c34.3-20.21,68.6-40.42,102.89-60.63"/>
      </g>
    </g>
  </g>
  <g id="cercle_central" data-name="cercle central">
    <ellipse class="cls-13" cx="296.93" cy="197.5" rx="48.97" ry="50.46"/>
  </g>
  <g id="bioregion">
    <g>
      <path class="cls-21" d="M216.27,182.2v9.49c.87-.87,1.8-1.52,2.81-1.95s2.09-.65,3.23-.65c2.5,0,4.62,.94,6.36,2.83s2.62,4.31,2.62,7.26-.9,5.23-2.71,7.15-3.94,2.87-6.42,2.87c-1.1,0-2.13-.2-3.08-.59s-1.89-1.03-2.83-1.92v2.02h-4.76v-26.51h4.76Zm5.04,11.32c-1.51,0-2.77,.52-3.76,1.55s-1.49,2.38-1.49,4.04,.5,3.07,1.49,4.12,2.25,1.57,3.76,1.57,2.7-.53,3.7-1.6,1.5-2.43,1.5-4.08-.49-2.99-1.48-4.03-2.23-1.57-3.73-1.57Z"/>
      <path class="cls-21" d="M237.15,181.71c.84,0,1.56,.3,2.16,.91,.6,.61,.9,1.35,.9,2.21s-.3,1.58-.89,2.19-1.31,.91-2.14,.91-1.58-.31-2.18-.92c-.6-.62-.9-1.36-.9-2.24s.3-1.56,.89-2.16c.6-.6,1.31-.9,2.16-.9Zm-2.4,7.88h4.8v19.12h-4.8v-19.12Z"/>
      <path class="cls-21" d="M252.89,189.09c1.8,0,3.5,.45,5.09,1.35s2.83,2.13,3.72,3.67,1.34,3.22,1.34,5.01-.45,3.49-1.34,5.06-2.12,2.8-3.67,3.68-3.25,1.33-5.12,1.33c-2.74,0-5.08-.98-7.02-2.93s-2.91-4.32-2.91-7.11c0-2.99,1.1-5.48,3.29-7.47,1.92-1.73,4.13-2.6,6.63-2.6Zm.08,4.52c-1.49,0-2.73,.52-3.72,1.56-.99,1.04-1.49,2.36-1.49,3.98s.49,3.01,1.47,4.04,2.22,1.55,3.72,1.55,2.75-.52,3.75-1.56c1-1.04,1.5-2.38,1.5-4.03s-.49-2.97-1.47-4c-.98-1.03-2.23-1.54-3.76-1.54Z"/>
      <path class="cls-21" d="M265.83,189.58h4.11v2.41c.45-.95,1.04-1.67,1.78-2.16s1.55-.74,2.43-.74c.62,0,1.27,.16,1.95,.49l-1.49,4.13c-.56-.28-1.03-.42-1.39-.42-.74,0-1.36,.46-1.87,1.37s-.76,2.71-.76,5.38l.02,.93v7.73h-4.76v-19.12Z"/>
      <path class="cls-21" d="M297.62,200.53h-15.42c.22,1.36,.82,2.44,1.78,3.24,.97,.8,2.2,1.2,3.7,1.2,1.79,0,3.33-.63,4.62-1.88l4.04,1.9c-1.01,1.43-2.21,2.49-3.62,3.17s-3.08,1.03-5.01,1.03c-3,0-5.44-.95-7.33-2.84s-2.83-4.26-2.83-7.11,.94-5.34,2.82-7.27,4.24-2.89,7.07-2.89c3.01,0,5.46,.96,7.35,2.89s2.83,4.47,2.83,7.64l-.02,.91Zm-4.8-3.78c-.32-1.07-.94-1.93-1.88-2.6-.93-.67-2.02-1-3.25-1-1.34,0-2.51,.38-3.52,1.12-.63,.47-1.22,1.29-1.76,2.48h10.41Z"/>
      <path class="cls-21" d="M315.64,189.58h4.78v16.38c0,3.23-.65,5.61-1.95,7.14-1.75,2.06-4.38,3.09-7.89,3.09-1.88,0-3.45-.23-4.73-.7s-2.36-1.16-3.23-2.07-1.53-2.01-1.95-3.31h5.29c.47,.54,1.07,.95,1.81,1.22s1.61,.41,2.62,.41c1.29,0,2.33-.2,3.11-.6s1.34-.91,1.66-1.55,.48-1.72,.48-3.27c-.84,.84-1.73,1.45-2.65,1.82s-1.97,.55-3.15,.55c-2.57,0-4.73-.93-6.5-2.78s-2.65-4.2-2.65-7.03c0-3.04,.94-5.47,2.81-7.31,1.7-1.66,3.73-2.5,6.08-2.5,1.1,0,2.14,.2,3.12,.61s1.96,1.07,2.94,2v-2.11Zm-4.97,3.99c-1.51,0-2.76,.51-3.74,1.52s-1.48,2.29-1.48,3.82,.5,2.9,1.51,3.92,2.27,1.53,3.8,1.53,2.72-.5,3.68-1.49,1.45-2.3,1.45-3.92-.49-2.89-1.46-3.88-2.23-1.49-3.76-1.49Z"/>
      <path class="cls-21" d="M327.15,181.71c.84,0,1.56,.3,2.17,.91,.6,.61,.9,1.35,.9,2.21s-.3,1.58-.89,2.19c-.6,.6-1.31,.91-2.14,.91s-1.58-.31-2.18-.92-.9-1.36-.9-2.24,.3-1.56,.89-2.16c.6-.6,1.31-.9,2.16-.9Zm-2.4,7.88h4.8v19.12h-4.8v-19.12Z"/>
      <path class="cls-21" d="M342.89,189.09c1.8,0,3.5,.45,5.09,1.35s2.83,2.13,3.72,3.67,1.34,3.22,1.34,5.01-.45,3.49-1.34,5.06-2.12,2.8-3.67,3.68-3.25,1.33-5.12,1.33c-2.74,0-5.08-.98-7.02-2.93s-2.91-4.32-2.91-7.11c0-2.99,1.1-5.48,3.29-7.47,1.92-1.73,4.13-2.6,6.63-2.6Zm.08,4.52c-1.49,0-2.73,.52-3.72,1.56-.99,1.04-1.49,2.36-1.49,3.98s.49,3.01,1.47,4.04c.98,1.03,2.22,1.55,3.72,1.55s2.75-.52,3.75-1.56c1-1.04,1.5-2.38,1.5-4.03s-.49-2.97-1.47-4c-.98-1.03-2.23-1.54-3.76-1.54Z"/>
      <path class="cls-21" d="M356.95,189.58h4.8v1.96c1.09-.92,2.07-1.56,2.96-1.91,.88-.36,1.79-.54,2.71-.54,1.9,0,3.5,.66,4.83,1.99,1.11,1.12,1.67,2.79,1.67,4.99v12.64h-4.75v-8.38c0-2.28-.1-3.8-.31-4.55-.21-.75-.56-1.32-1.07-1.71-.51-.39-1.14-.59-1.88-.59-.97,0-1.8,.32-2.5,.97-.7,.65-1.18,1.55-1.45,2.7-.14,.6-.21,1.89-.21,3.88v7.67h-4.8v-19.12Z"/>
    </g>
  </g>
  <g id="Calque_6" data-name="Calque 6">
    <circle class="cls-2" cx="252.63" cy="198.69" r="11.37"/>
    <path class="cls-1" d="M245.42,207.98c.17,5.57,1.69,38.32,27.69,62.48,22.97,21.34,49.5,21.53,55.75,21.4"/>
    <path class="cls-1" d="M245.69,206.87c-1.92,1.43-6.44,5.13-9.65,11.64-3.93,7.98-3.3,14.91-3.03,17.02"/>
    <circle class="cls-14" cx="256.88" cy="246" r="7.12"/>
    <circle class="cls-18" cx="281.02" cy="275.04" r="7.85"/>
    <path class="cls-1" d="M262.11,251.17c1.63,.94,5.73,3.07,11.51,3.71,7.09,.79,12.05-1.17,13.53-1.82"/>
    <circle class="cls-16" cx="343.25" cy="198.69" r="11.37"/>
    <path class="cls-1" d="M288.87,276.8c4.41,1.26,15.2,3.67,27.51-.78,15.11-5.45,22.57-17.63,24.72-21.46"/>
    <circle class="cls-14" cx="327.59" cy="266.57" r="9.08"/>
    <circle class="cls-15" cx="328.87" cy="288.96" r="5.39"/>
    <circle class="cls-8" cx="235.91" cy="238.87" r="5.46"/>
    <path class="cls-1" d="M305.22,255.69c.5,1.15,1.87,3.88,4.84,6.17,3.65,2.81,7.32,3.12,8.45,3.17"/>
    <circle class="cls-7" cx="343.79" cy="249.93" r="7.12"/>
    <circle class="cls-2" cx="296.93" cy="247.96" r="11.37"/>
    <circle class="cls-17" cx="296.93" cy="150.66" r="11.37"/>
  </g>
  <g id="Calque_6_-_copie" data-name="Calque 6 - copie">
    <circle class="cls-10" cx="252.63" cy="198.69" r="11.37"/>
    <path class="cls-1" d="M350.66,189.21c-.46-5.58-3.7-38.42-30.88-61.34-24.01-20.25-50.46-19.06-56.69-18.6"/>
    <path class="cls-1" d="M351.82,190.44c2.16-1.36,7.16-4.94,9.84-11.7,3.28-8.29,.91-15.91,.09-18.22"/>
    <circle class="cls-9" cx="337.37" cy="151.31" r="7.12"/>
    <circle class="cls-5" cx="311.75" cy="123.56" r="7.85"/>
    <path class="cls-1" d="M331.88,146.41c-1.68-.85-5.88-2.77-11.69-3.11-7.12-.42-11.97,1.8-13.41,2.52"/>
    <path class="cls-1" d="M303.82,122.21c-4.47-1.03-15.37-2.87-27.44,2.21-14.8,6.23-21.62,18.78-23.57,22.72"/>
    <circle class="cls-12" cx="265.69" cy="134.44" r="9.08"/>
    <circle class="cls-4" cx="263.24" cy="112.16" r="5.39"/>
    <circle class="cls-11" cx="358.68" cy="157.33" r="5.46"/>
    <path class="cls-1" d="M305.22,255.69c.5,1.15,1.87,3.88,4.84,6.17,3.65,2.81,7.32,3.12,8.45,3.17"/>
    <circle class="cls-5" cx="250.37" cy="151.91" r="7.12"/>
    <circle class="cls-3" cx="296.93" cy="247.96" r="11.37"/>
    <path class="cls-1" d="M290.21,140.84c-.82-.95-2.92-3.16-6.44-4.48-4.31-1.62-7.92-.83-9-.55"/>
  </g>
</svg>