<?xml version="1.0" encoding="UTF-8" standalone="no"?>
<svg
   viewBox="0 0 322 375"
   version="1.1"
   id="svg116"
   sodipodi:docname="logo.svg"
   width="322"
   height="375"
   inkscape:version="1.2.2 (1:1.2.2+202212051552+b0a8486541)"
   xmlns:inkscape="http://www.inkscape.org/namespaces/inkscape"
   xmlns:sodipodi="http://sodipodi.sourceforge.net/DTD/sodipodi-0.dtd"
   xmlns="http://www.w3.org/2000/svg"
   xmlns:svg="http://www.w3.org/2000/svg">
  <sodipodi:namedview
     id="namedview118"
     pagecolor="#ffffff"
     bordercolor="#000000"
     borderopacity="0.25"
     inkscape:showpageshadow="2"
     inkscape:pageopacity="0.0"
     inkscape:pagecheckerboard="0"
     inkscape:deskcolor="#d1d1d1"
     showgrid="false"
     inkscape:zoom="1.1949367"
     inkscape:cx="196.66314"
     inkscape:cy="225.53496"
     inkscape:window-width="1920"
     inkscape:window-height="1016"
     inkscape:window-x="0"
     inkscape:window-y="0"
     inkscape:window-maximized="1"
     inkscape:current-layer="svg116" />
  <defs
     id="defs4">
    <style
       id="style2">
      .cls-1, .cls-2, .cls-3, .cls-4, .cls-5, .cls-6, .cls-7, .cls-8, .cls-9, .cls-10, .cls-11, .cls-12, .cls-13, .cls-14, .cls-15, .cls-16, .cls-17, .cls-18 {
        stroke-miterlimit: 10;
      }

      .cls-1, .cls-2, .cls-3, .cls-4, .cls-5, .cls-6, .cls-7, .cls-8, .cls-9, .cls-11, .cls-12, .cls-13, .cls-14, .cls-15, .cls-17, .cls-18 {
        stroke: #1d1d1b;
      }

      .cls-1, .cls-4, .cls-5, .cls-7, .cls-8, .cls-9, .cls-11, .cls-12, .cls-13, .cls-14, .cls-15, .cls-18 {
        stroke-width: .5px;
      }

      .cls-1, .cls-6 {
        fill: none;
      }

      .cls-2, .cls-3, .cls-17 {
        stroke-width: .75px;
      }

      .cls-2, .cls-19, .cls-13 {
        fill: #189995;
      }

      .cls-3, .cls-8 {
        fill: #e6da50;
      }

      .cls-4 {
        fill: #92654e;
      }

      .cls-5 {
        fill: #d9b9a7;
      }

      .cls-7, .cls-10 {
        fill: #ece27b;
      }

      .cls-20 {
        fill: #a0d6de;
      }

      .cls-9 {
        fill: #ecdbd2;
      }

      .cls-10, .cls-16 {
        stroke: #030707;
      }

      .cls-11 {
        fill: #c7977f;
      }

      .cls-12, .cls-16 {
        fill: #b6775a;
      }

      .cls-14 {
        fill: #f6f0c3;
      }

      .cls-15 {
        fill: #c0b96f;
      }

      .cls-21 {
        fill: #1d1d1b;
      }

      .cls-17 {
        fill: #a65a3b;
      }

      .cls-18 {
        fill: #f1e9a1;
      }
    </style>
  </defs>
  <g
     id="Calque_3"
     data-name="Calque 3"
     transform="matrix(1.412946,0,0,1.412946,-252.02467,-96.04562)">
    <g
       id="g10">
      <polygon
         class="cls-19"
         points="180.23,266.21 180.23,135.86 292.64,70.68 405.07,135.86 405.07,266.21 293.14,331.9 "
         id="polygon6" />
      <polygon
         class="cls-6"
         points="405.07,266.21 293.14,331.9 180.23,266.21 180.23,135.86 292.64,70.68 405.07,135.86 "
         id="polygon8" />
    </g>
  </g>
  <g
     id="Calque_4"
     data-name="Calque 4"
     transform="matrix(1.412946,0,0,1.412946,-252.02467,-96.04562)">
    <g
       id="g29">
      <path
         class="cls-20"
         d="m 395.44,140.83 v 120.9 c -34.29,20.21 -68.59,40.42 -102.89,60.63 L 189.86,261.73 V 140.83 L 292.55,80.85 Z"
         id="path13" />
      <g
         id="g27">
        <line
           class="cls-6"
           x1="189.86"
           y1="140.83"
           x2="189.86"
           y2="261.73001"
           id="line15" />
        <line
           class="cls-6"
           x1="189.86"
           y1="140.83"
           x2="292.54999"
           y2="80.849998"
           id="line17" />
        <line
           class="cls-6"
           x1="395.44"
           y1="140.83"
           x2="292.54999"
           y2="80.849998"
           id="line19" />
        <path
           class="cls-6"
           d="m 395.44,140.83 v 120.9"
           id="path21" />
        <line
           class="cls-6"
           x1="189.86"
           y1="261.73001"
           x2="292.54999"
           y2="322.35999"
           id="line23" />
        <path
           class="cls-6"
           d="m 292.55,322.36 c 34.3,-20.21 68.6,-40.42 102.89,-60.63"
           id="path25" />
      </g>
    </g>
  </g>
  <g
     id="cercle_central"
     data-name="cercle central"
     transform="matrix(1.412946,0,0,1.412946,-252.02467,-96.04562)">
    <ellipse
       class="cls-13"
       cx="296.92999"
       cy="197.5"
       rx="48.970001"
       ry="50.459999"
       id="ellipse32" />
  </g>
  <g
     id="bioregion"
     transform="matrix(1.412946,0,0,1.412946,-252.02467,-96.04562)">
    <g
       id="g53">
      <path
         class="cls-21"
         d="m 216.27,182.2 v 9.49 c 0.87,-0.87 1.8,-1.52 2.81,-1.95 1.01,-0.43 2.09,-0.65 3.23,-0.65 2.5,0 4.62,0.94 6.36,2.83 1.74,1.89 2.62,4.31 2.62,7.26 0,2.95 -0.9,5.23 -2.71,7.15 -1.81,1.92 -3.94,2.87 -6.42,2.87 -1.1,0 -2.13,-0.2 -3.08,-0.59 -0.95,-0.39 -1.89,-1.03 -2.83,-1.92 v 2.02 h -4.76 V 182.2 h 4.76 z m 5.04,11.32 c -1.51,0 -2.77,0.52 -3.76,1.55 -0.99,1.03 -1.49,2.38 -1.49,4.04 0,1.66 0.5,3.07 1.49,4.12 0.99,1.05 2.25,1.57 3.76,1.57 1.51,0 2.7,-0.53 3.7,-1.6 1,-1.07 1.5,-2.43 1.5,-4.08 0,-1.65 -0.49,-2.99 -1.48,-4.03 -0.99,-1.04 -2.23,-1.57 -3.73,-1.57 z"
         id="path35" />
      <path
         class="cls-21"
         d="m 237.15,181.71 c 0.84,0 1.56,0.3 2.16,0.91 0.6,0.61 0.9,1.35 0.9,2.21 0,0.86 -0.3,1.58 -0.89,2.19 -0.59,0.61 -1.31,0.91 -2.14,0.91 -0.83,0 -1.58,-0.31 -2.18,-0.92 -0.6,-0.62 -0.9,-1.36 -0.9,-2.24 0,-0.88 0.3,-1.56 0.89,-2.16 0.6,-0.6 1.31,-0.9 2.16,-0.9 z m -2.4,7.88 h 4.8 v 19.12 h -4.8 z"
         id="path37" />
      <path
         class="cls-21"
         d="m 252.89,189.09 c 1.8,0 3.5,0.45 5.09,1.35 1.59,0.9 2.83,2.13 3.72,3.67 0.89,1.54 1.34,3.22 1.34,5.01 0,1.79 -0.45,3.49 -1.34,5.06 -0.89,1.57 -2.12,2.8 -3.67,3.68 -1.55,0.88 -3.25,1.33 -5.12,1.33 -2.74,0 -5.08,-0.98 -7.02,-2.93 -1.94,-1.95 -2.91,-4.32 -2.91,-7.11 0,-2.99 1.1,-5.48 3.29,-7.47 1.92,-1.73 4.13,-2.6 6.63,-2.6 z m 0.08,4.52 c -1.49,0 -2.73,0.52 -3.72,1.56 -0.99,1.04 -1.49,2.36 -1.49,3.98 0,1.62 0.49,3.01 1.47,4.04 0.98,1.03 2.22,1.55 3.72,1.55 1.5,0 2.75,-0.52 3.75,-1.56 1,-1.04 1.5,-2.38 1.5,-4.03 0,-1.65 -0.49,-2.97 -1.47,-4 -0.98,-1.03 -2.23,-1.54 -3.76,-1.54 z"
         id="path39" />
      <path
         class="cls-21"
         d="m 265.83,189.58 h 4.11 v 2.41 c 0.45,-0.95 1.04,-1.67 1.78,-2.16 0.74,-0.49 1.55,-0.74 2.43,-0.74 0.62,0 1.27,0.16 1.95,0.49 l -1.49,4.13 c -0.56,-0.28 -1.03,-0.42 -1.39,-0.42 -0.74,0 -1.36,0.46 -1.87,1.37 -0.51,0.91 -0.76,2.71 -0.76,5.38 l 0.02,0.93 v 7.73 h -4.76 v -19.12 z"
         id="path41" />
      <path
         class="cls-21"
         d="M 297.62,200.53 H 282.2 c 0.22,1.36 0.82,2.44 1.78,3.24 0.97,0.8 2.2,1.2 3.7,1.2 1.79,0 3.33,-0.63 4.62,-1.88 l 4.04,1.9 c -1.01,1.43 -2.21,2.49 -3.62,3.17 -1.41,0.68 -3.08,1.03 -5.01,1.03 -3,0 -5.44,-0.95 -7.33,-2.84 -1.89,-1.89 -2.83,-4.26 -2.83,-7.11 0,-2.85 0.94,-5.34 2.82,-7.27 1.88,-1.93 4.24,-2.89 7.07,-2.89 3.01,0 5.46,0.96 7.35,2.89 1.89,1.93 2.83,4.47 2.83,7.64 l -0.02,0.91 z m -4.8,-3.78 c -0.32,-1.07 -0.94,-1.93 -1.88,-2.6 -0.93,-0.67 -2.02,-1 -3.25,-1 -1.34,0 -2.51,0.38 -3.52,1.12 -0.63,0.47 -1.22,1.29 -1.76,2.48 z"
         id="path43" />
      <path
         class="cls-21"
         d="m 315.64,189.58 h 4.78 v 16.38 c 0,3.23 -0.65,5.61 -1.95,7.14 -1.75,2.06 -4.38,3.09 -7.89,3.09 -1.88,0 -3.45,-0.23 -4.73,-0.7 -1.28,-0.47 -2.36,-1.16 -3.23,-2.07 -0.87,-0.91 -1.53,-2.01 -1.95,-3.31 h 5.29 c 0.47,0.54 1.07,0.95 1.81,1.22 0.74,0.27 1.61,0.41 2.62,0.41 1.29,0 2.33,-0.2 3.11,-0.6 0.78,-0.4 1.34,-0.91 1.66,-1.55 0.32,-0.64 0.48,-1.72 0.48,-3.27 -0.84,0.84 -1.73,1.45 -2.65,1.82 -0.92,0.37 -1.97,0.55 -3.15,0.55 -2.57,0 -4.73,-0.93 -6.5,-2.78 -1.77,-1.85 -2.65,-4.2 -2.65,-7.03 0,-3.04 0.94,-5.47 2.81,-7.31 1.7,-1.66 3.73,-2.5 6.08,-2.5 1.1,0 2.14,0.2 3.12,0.61 0.98,0.41 1.96,1.07 2.94,2 v -2.11 z m -4.97,3.99 c -1.51,0 -2.76,0.51 -3.74,1.52 -0.98,1.01 -1.48,2.29 -1.48,3.82 0,1.53 0.5,2.9 1.51,3.92 1.01,1.02 2.27,1.53 3.8,1.53 1.53,0 2.72,-0.5 3.68,-1.49 0.96,-0.99 1.45,-2.3 1.45,-3.92 0,-1.62 -0.49,-2.89 -1.46,-3.88 -0.97,-0.99 -2.23,-1.49 -3.76,-1.49 z"
         id="path45" />
      <path
         class="cls-21"
         d="m 327.15,181.71 c 0.84,0 1.56,0.3 2.17,0.91 0.6,0.61 0.9,1.35 0.9,2.21 0,0.86 -0.3,1.58 -0.89,2.19 -0.6,0.6 -1.31,0.91 -2.14,0.91 -0.83,0 -1.58,-0.31 -2.18,-0.92 -0.6,-0.61 -0.9,-1.36 -0.9,-2.24 0,-0.88 0.3,-1.56 0.89,-2.16 0.6,-0.6 1.31,-0.9 2.16,-0.9 z m -2.4,7.88 h 4.8 v 19.12 h -4.8 z"
         id="path47" />
      <path
         class="cls-21"
         d="m 342.89,189.09 c 1.8,0 3.5,0.45 5.09,1.35 1.59,0.9 2.83,2.13 3.72,3.67 0.89,1.54 1.34,3.22 1.34,5.01 0,1.79 -0.45,3.49 -1.34,5.06 -0.89,1.57 -2.12,2.8 -3.67,3.68 -1.55,0.88 -3.25,1.33 -5.12,1.33 -2.74,0 -5.08,-0.98 -7.02,-2.93 -1.94,-1.95 -2.91,-4.32 -2.91,-7.11 0,-2.99 1.1,-5.48 3.29,-7.47 1.92,-1.73 4.13,-2.6 6.63,-2.6 z m 0.08,4.52 c -1.49,0 -2.73,0.52 -3.72,1.56 -0.99,1.04 -1.49,2.36 -1.49,3.98 0,1.62 0.49,3.01 1.47,4.04 0.98,1.03 2.22,1.55 3.72,1.55 1.5,0 2.75,-0.52 3.75,-1.56 1,-1.04 1.5,-2.38 1.5,-4.03 0,-1.65 -0.49,-2.97 -1.47,-4 -0.98,-1.03 -2.23,-1.54 -3.76,-1.54 z"
         id="path49" />
      <path
         class="cls-21"
         d="m 356.95,189.58 h 4.8 v 1.96 c 1.09,-0.92 2.07,-1.56 2.96,-1.91 0.88,-0.36 1.79,-0.54 2.71,-0.54 1.9,0 3.5,0.66 4.83,1.99 1.11,1.12 1.67,2.79 1.67,4.99 v 12.64 h -4.75 v -8.38 c 0,-2.28 -0.1,-3.8 -0.31,-4.55 -0.21,-0.75 -0.56,-1.32 -1.07,-1.71 -0.51,-0.39 -1.14,-0.59 -1.88,-0.59 -0.97,0 -1.8,0.32 -2.5,0.97 -0.7,0.65 -1.18,1.55 -1.45,2.7 -0.14,0.6 -0.21,1.89 -0.21,3.88 v 7.67 h -4.8 z"
         id="path51" />
    </g>
  </g>
  <g
     id="Calque_6"
     data-name="Calque 6"
     transform="matrix(1.412946,0,0,1.412946,-252.02467,-96.04562)">
    <circle
       class="cls-2"
       cx="252.63"
       cy="198.69"
       r="11.37"
       id="circle56" />
    <path
       class="cls-1"
       d="m 245.42,207.98 c 0.17,5.57 1.69,38.32 27.69,62.48 22.97,21.34 49.5,21.53 55.75,21.4"
       id="path58" />
    <path
       class="cls-1"
       d="m 245.69,206.87 c -1.92,1.43 -6.44,5.13 -9.65,11.64 -3.93,7.98 -3.3,14.91 -3.03,17.02"
       id="path60" />
    <circle
       class="cls-14"
       cx="256.88"
       cy="246"
       r="7.1199999"
       id="circle62" />
    <circle
       class="cls-18"
       cx="281.01999"
       cy="275.04001"
       r="7.8499999"
       id="circle64" />
    <path
       class="cls-1"
       d="m 262.11,251.17 c 1.63,0.94 5.73,3.07 11.51,3.71 7.09,0.79 12.05,-1.17 13.53,-1.82"
       id="path66" />
    <circle
       class="cls-16"
       cx="343.25"
       cy="198.69"
       r="11.37"
       id="circle68" />
    <path
       class="cls-1"
       d="m 288.87,276.8 c 4.41,1.26 15.2,3.67 27.51,-0.78 15.11,-5.45 22.57,-17.63 24.72,-21.46"
       id="path70" />
    <circle
       class="cls-14"
       cx="327.59"
       cy="266.57001"
       r="9.0799999"
       id="circle72" />
    <circle
       class="cls-15"
       cx="328.87"
       cy="288.95999"
       r="5.3899999"
       id="circle74" />
    <circle
       class="cls-8"
       cx="235.91"
       cy="238.87"
       r="5.46"
       id="circle76" />
    <path
       class="cls-1"
       d="m 305.22,255.69 c 0.5,1.15 1.87,3.88 4.84,6.17 3.65,2.81 7.32,3.12 8.45,3.17"
       id="path78" />
    <circle
       class="cls-7"
       cx="343.79001"
       cy="249.92999"
       r="7.1199999"
       id="circle80" />
    <circle
       class="cls-2"
       cx="296.92999"
       cy="247.96001"
       r="11.37"
       id="circle82" />
    <circle
       class="cls-17"
       cx="296.92999"
       cy="150.66"
       r="11.37"
       id="circle84" />
  </g>
  <g
     id="Calque_6_-_copie"
     data-name="Calque 6 - copie"
     transform="matrix(1.412946,0,0,1.412946,-252.02467,-96.04562)">
    <circle
       class="cls-10"
       cx="252.63"
       cy="198.69"
       r="11.37"
       id="circle87" />
    <path
       class="cls-1"
       d="m 350.66,189.21 c -0.46,-5.58 -3.7,-38.42 -30.88,-61.34 -24.01,-20.25 -50.46,-19.06 -56.69,-18.6"
       id="path89" />
    <path
       class="cls-1"
       d="m 351.82,190.44 c 2.16,-1.36 7.16,-4.94 9.84,-11.7 3.28,-8.29 0.91,-15.91 0.09,-18.22"
       id="path91" />
    <circle
       class="cls-9"
       cx="337.37"
       cy="151.31"
       r="7.1199999"
       id="circle93" />
    <circle
       class="cls-5"
       cx="311.75"
       cy="123.56"
       r="7.8499999"
       id="circle95" />
    <path
       class="cls-1"
       d="m 331.88,146.41 c -1.68,-0.85 -5.88,-2.77 -11.69,-3.11 -7.12,-0.42 -11.97,1.8 -13.41,2.52"
       id="path97" />
    <path
       class="cls-1"
       d="m 303.82,122.21 c -4.47,-1.03 -15.37,-2.87 -27.44,2.21 -14.8,6.23 -21.62,18.78 -23.57,22.72"
       id="path99" />
    <circle
       class="cls-12"
       cx="265.69"
       cy="134.44"
       r="9.0799999"
       id="circle101" />
    <circle
       class="cls-4"
       cx="263.23999"
       cy="112.16"
       r="5.3899999"
       id="circle103" />
    <circle
       class="cls-11"
       cx="358.67999"
       cy="157.33"
       r="5.46"
       id="circle105" />
    <path
       class="cls-1"
       d="m 305.22,255.69 c 0.5,1.15 1.87,3.88 4.84,6.17 3.65,2.81 7.32,3.12 8.45,3.17"
       id="path107" />
    <circle
       class="cls-5"
       cx="250.37"
       cy="151.91"
       r="7.1199999"
       id="circle109" />
    <circle
       class="cls-3"
       cx="296.92999"
       cy="247.96001"
       r="11.37"
       id="circle111" />
    <path
       class="cls-1"
       d="m 290.21,140.84 c -0.82,-0.95 -2.92,-3.16 -6.44,-4.48 -4.31,-1.62 -7.92,-0.83 -9,-0.55"
       id="path113" />
  </g>
</svg>
