<svg id="Calque_1" data-name="Calque 1" xmlns="http://www.w3.org/2000/svg" viewBox="0 0 225.84 262.38"><defs><style>.cls-1{fill:#51bcbe;}.cls-2{fill:#cae7e8;}.cls-3{fill:#fdfdfd;}.cls-10,.cls-11,.cls-12,.cls-13,.cls-14,.cls-15,.cls-16,.cls-17,.cls-18,.cls-19,.cls-20,.cls-21,.cls-22,.cls-23,.cls-24,.cls-25,.cls-26,.cls-27,.cls-28,.cls-32,.cls-33,.cls-34,.cls-35,.cls-38,.cls-4,.cls-5,.cls-6,.cls-7,.cls-8,.cls-9{fill:none;}.cls-37,.cls-4{stroke:#000;}.cls-10,.cls-11,.cls-12,.cls-13,.cls-14,.cls-15,.cls-16,.cls-17,.cls-18,.cls-19,.cls-20,.cls-21,.cls-22,.cls-23,.cls-24,.cls-25,.cls-26,.cls-27,.cls-28,.cls-32,.cls-33,.cls-34,.cls-38,.cls-4,.cls-5,.cls-6,.cls-7,.cls-8,.cls-9{stroke-miterlimit:10;}.cls-5{stroke:#f18911;}.cls-11,.cls-12,.cls-13,.cls-14,.cls-15,.cls-16,.cls-17,.cls-18,.cls-19,.cls-20,.cls-21,.cls-22,.cls-23,.cls-24,.cls-25,.cls-26,.cls-27,.cls-28,.cls-5,.cls-6,.cls-7,.cls-8,.cls-9{stroke-width:0.5px;}.cls-6{stroke:#f59d35;}.cls-7{stroke:#eb6018;}.cls-8{stroke:#efc029;}.cls-10,.cls-9{stroke:#eaa711;}.cls-10{stroke-width:0.25px;}.cls-11{stroke:#e75b13;}.cls-12{stroke:#e67717;}.cls-13{stroke:#f2bc11;}.cls-14{stroke:#efcf10;}.cls-15{stroke:#ed6d18;}.cls-16{stroke:#e8451a;}.cls-17{stroke:#e6361a;}.cls-18{stroke:#f2b612;}.cls-19{stroke:#ef7a13;}.cls-20{stroke:#e8431c;}.cls-21{stroke:#e5901d;}.cls-22{stroke:#e16c1e;}.cls-23{stroke:#f18d15;}.cls-24{stroke:#c93717;}.cls-25{stroke:#eccc0c;}.cls-26{stroke:#f4e181;}.cls-27{stroke:#f4c708;}.cls-28{stroke:#f4de7e;}.cls-29{fill:#ffcd31;}.cls-30,.cls-37{fill:#f1842b;}.cls-31{fill:#f4c83d;}.cls-32{stroke:#020304;}.cls-33{stroke:#020202;}.cls-34{stroke:#050505;}.cls-36{isolation:isolate;}.cls-37{stroke-linecap:round;stroke-linejoin:round;}.cls-38{stroke:#1d1d1b;}</style></defs><g id="Calque_3" data-name="Calque 3"><path class="cls-1" d="M29.67,95.08a117.28,117.28,0,0,1-10.09-9.85,74.68,74.68,0,0,1-9.32-14.74A123.35,123.35,0,0,0,29.67,95.08Z"/><path class="cls-1" d="M41.91,105.5c-3.58-3.34-7.61-6.8-12.17-10.36l-.07-.06A123.35,123.35,0,0,1,10.26,70.49h0l18-10.6c2.3-1.35,4.68-2.75,7.07-4.17l2.06-1.21L88,24.69l2.65-1.56c1.48-.87,3-1.73,4.39-2.59l1.72-1c3.14-1.84,6.12-3.6,8.74-5.15L113,10l50.36,29.67.77.45.71.42c-20.74,4-36.25,9.48-43.42,13.52a92.15,92.15,0,0,0-8.24,5.28,78.56,78.56,0,0,0-9.88,8.52,92,92,0,0,0-7.6,9C90.36,84.15,83,100.21,77.28,122A95.91,95.91,0,0,1,41.91,105.5Z"/><path class="cls-1" d="M176,47.08l-3.2-1.89-4.39-2.58h0a9.78,9.78,0,0,0-3.57-2.1h0l-.71-.42-.77-.45-50.4-29.7h0l-7.47,4.41L96.71,19.5,95,20.5,90.6,23.09,88,24.65,37.37,54.47l-2.06,1.21-7.07,4.17-18,10.59h0a74.68,74.68,0,0,0,9.32,14.74A117.28,117.28,0,0,0,29.65,95l.07.06a115.58,115.58,0,0,0,12.17,10.36C72.51,134,69.56,153.89,69.56,153.89a26.55,26.55,0,0,1-3.48,9.5,62.18,62.18,0,0,1-6.19,7.82c-10.51,10.41-28.5,18.34-49.67,20.2h0l103.14,61h0q51.12-30.47,102.23-61h0A63.62,63.62,0,0,1,176,176.34h0a59.78,59.78,0,0,1-21.23-40.53c-.77-9.71,4-23.47,10.24-34.61a44,44,0,0,0,7-10.59,37,37,0,0,1,5.5-5.68c14.8-11.91,31-14,38-14.54L184.06,51.87l-2.41-1.42Zm49.41,18.7V196.11l-112,65.67L.5,196.11V65.78L112.91.58Z"/><path class="cls-2" d="M77.23,122c2,.46,64.12.65,83.61-16.61a57.85,57.85,0,0,0-6.06,30.45A59.63,59.63,0,0,0,176,176.39h0a63.62,63.62,0,0,0,39.58,15.08q-51.1,30.48-102.23,61l-103.12-61A63.6,63.6,0,0,0,59.9,171.26a39,39,0,0,0,6.19-7.82A58,58,0,0,0,76,134.35C76.2,130.07,76.63,126,77.23,122Z"/><path class="cls-1" d="M77.23,122c-.6,4-1,8-1.27,12.33a58,58,0,0,1-9.86,29.09,26.55,26.55,0,0,0,3.48-9.5s3-19.86-27.67-48.44A96,96,0,0,0,77.23,122Z"/><path class="cls-1" d="M215.62,191.47h0A63.62,63.62,0,0,1,176,176.39a63.62,63.62,0,0,0,39.6,15.07Z"/><path class="cls-2" d="M215.62,70.44c-16.89.54-39-20.55-47.25-27.83l4.39,2.58,3.2,1.89,5.81,3.42,2.41,1.42Z"/><path class="cls-2" d="M168.37,42.61c8.29,7.28,30.36,28.37,47.25,27.83-7.09.49-23.24,2.63-38,14.54a37,37,0,0,0-5.5,5.68c.28-.6.55-1.22.81-1.84a62.75,62.75,0,0,0-12,16.58h0C141.44,122.66,79.3,122.47,77.32,122,83,100.18,90.4,84.12,95.71,76.82a92,92,0,0,1,7.6-9,78.56,78.56,0,0,1,9.88-8.52A92.15,92.15,0,0,1,121.43,54c7.17-4,22.68-9.49,43.42-13.52h0l1.77,1,1.56.92.24.14Z"/><path class="cls-1" d="M184.18,51.92l-2.41-1.42Z"/><path class="cls-1" d="M176,47.08l-3.2-1.89Z"/><path class="cls-2" d="M154.79,135.86A59.78,59.78,0,0,0,176,176.39a59.63,59.63,0,0,1-21.24-40.53,57.85,57.85,0,0,1,6.06-30.45h0a51.15,51.15,0,0,0,4.18-4.15C158.77,112.39,154,126.15,154.79,135.86Z"/><path class="cls-3" d="M172.89,88.78c-.26.62-.53,1.24-.81,1.84a77,77,0,0,0-7,10.59,51.15,51.15,0,0,1-4.18,4.15A62.94,62.94,0,0,1,172.89,88.78Z"/><path class="cls-1" d="M172.08,90.66a44,44,0,0,1-7,10.59A77,77,0,0,1,172.08,90.66Z"/><path class="cls-3" d="M168.37,42.6l-.24-.14-1.56-.92-1.77-1A9.76,9.76,0,0,1,168.37,42.6Z"/><path class="cls-3" d="M168.12,42.46l-1.56-.92Z"/><path class="cls-1" d="M164.05,40.06l-.77-.45Z"/><path class="cls-2" d="M113.37,252.44h0l-103.14-61h0Z"/><path class="cls-1" d="M112.91,9.93h0l-7.48,4.4Z"/><path class="cls-1" d="M96.7,19.49l8.74-5.15C102.82,15.89,99.84,17.65,96.7,19.49Z"/><path class="cls-1" d="M95,20.5l1.72-1Z"/><path class="cls-1" d="M90.59,23.09,95,20.5C93.54,21.36,92.07,22.22,90.59,23.09Z"/><path class="cls-1" d="M90.59,23.09l-2.65,1.56Z"/><path class="cls-2" d="M59.91,171.26a62.18,62.18,0,0,0,6.19-7.82A39,39,0,0,1,59.91,171.26Z"/><path class="cls-2" d="M10.24,191.46c21.17-1.86,39.16-9.79,49.67-20.2a63.6,63.6,0,0,1-49.65,20.21Z"/><path class="cls-1" d="M35.28,55.68l2.06-1.21Z"/><path class="cls-1" d="M28.21,59.85l7.07-4.17C32.89,57.1,30.51,58.5,28.21,59.85Z"/><path class="cls-1" d="M29.74,95.14c4.56,3.56,8.59,7,12.17,10.36A115.58,115.58,0,0,1,29.74,95.14Z"/><path class="cls-1" d="M10.23,70.44l18-10.59-18,10.6Z"/><polygon class="cls-4" points="225.34 65.76 225.34 196.11 113.41 261.8 0.5 196.11 0.5 65.76 112.91 0.58 225.34 65.76"/><path class="cls-4" d="M113.37,252.44h0l-103.14-61h0"/><line class="cls-4" x1="163.28" y1="39.61" x2="164.05" y2="40.06"/><path class="cls-4" d="M29.74,95.14l-.07-.06a117.28,117.28,0,0,1-10.09-9.85,74.68,74.68,0,0,1-9.32-14.74h0l18-10.6c2.3-1.35,4.68-2.75,7.07-4.17l2.06-1.21L88,24.69l2.65-1.56c1.48-.87,3-1.73,4.39-2.59l1.72-1c3.14-1.84,6.12-3.6,8.74-5.15L113,10l50.36,29.67.77.45.71.42h0l1.77,1,1.56.92.24.14h0l4.39,2.58,3.2,1.89,5.81,3.42,2.41,1.42,31.44,18.52c-7.09.49-23.24,2.63-38,14.54a37,37,0,0,0-5.5,5.68,77,77,0,0,0-7,10.59c-6.26,11.14-11,24.9-10.24,34.61a59.78,59.78,0,0,0,21.23,40.53h0a63.62,63.62,0,0,0,39.6,15.07h0q-51.1,30.48-102.23,61l-103.12-61h0c21.17-1.86,39.16-9.79,49.67-20.2a39,39,0,0,0,6.19-7.82,26.55,26.55,0,0,0,3.48-9.5s3-19.86-27.67-48.44C38.37,102.16,34.3,98.7,29.74,95.14Z"/></g><path class="cls-1" d="M72.62,123.78A12,12,0,0,1,69.69,127l2.14.87c-.86-3.16,1.12-6.51-.24-9.46a3.69,3.69,0,0,0-4.59-2,1.28,1.28,0,0,0-.87,1.57,1.39,1.39,0,0,0,.12.28c.82,1.37,2.26,2.19,3.09,3.52.7,1.13.49,2.36,1.82,3a2.64,2.64,0,0,0,2.57-.11A4.87,4.87,0,0,0,75,123.42c1-1.12,0-.72,1.4-.8l-1.46-1.47c0,.51-.05,1-.06,1.52-.05,1.42,2.18,2.15,2.81.76a3,3,0,0,0,.39-1.72,2.9,2.9,0,0,0-.3-1c-.29-.68-.39-.76-.3-.25l-2.66-1.1.16,1.8a1.48,1.48,0,0,0,2.9.39,11.17,11.17,0,0,0,.43-2.13c.16-1.3-1.56-1.66-2.35-1a3.66,3.66,0,0,0-1.19,2.51c-.39,2.26-.56,4.52-1.05,6.77l2.86.39c0-.05.14-2.86.11-2.85l-1.05-1.81a3,3,0,0,0-1.53,2.11c-.65,2.19-.84,4.1-1.93,6.21l2.08-.55c-1.46-.8-1.56.06-1.37-1.7.15-1.35.46-1.26,1-2.28a2.48,2.48,0,0,0-.4-2.94c-1.18-1.51-3.54.71-2.15,2.16-1.39-1.46-1.74,3.58-1.73,4.15,0,2,1.45,2.42,3.15,3.24a1.55,1.55,0,0,0,2.09-.55,17.31,17.31,0,0,0,1.33-3.82c.23-1.14,0-3.58.77-4.39.57-.58.2-1.9-.74-1.78-2.16.29-2.11,2.61-2.45,4.41s2.43,2.62,2.8.78c.25-1.2.46-2.4.59-3.62.09-.81-.24-3.78.51-4.28l-2-1.55a6.06,6.06,0,0,1-.56,1.7l2.89.4v-1.8a1.58,1.58,0,0,0-1.61-1.55,1.49,1.49,0,0,0-.74.2,2.28,2.28,0,0,0-1.26,1.8c-.13.77.81,2,.6,2.57l3,.4v-1.52a1.49,1.49,0,0,0-1.52-1.46,1.27,1.27,0,0,0-.34,0,6.11,6.11,0,0,0-2.19.44c-.78.43-1,1.91-1.62,1.52-.31-.18-.71-1.51-1-1.89-.83-1.06-2-1.77-2.76-2.88l-.75,1.85c1.08-.44,2.09,1.45,2.13,2.27a14.41,14.41,0,0,1-.4,3.27c-.22,1.28-.27,2.57-.43,3.86a1.47,1.47,0,0,0,1.49,1.45,1.53,1.53,0,0,0,.7-.19,14.05,14.05,0,0,0,4-4.2c1-1.62-1.55-3.12-2.57-1.5Z"/><g id="Calque_5" data-name="Calque 5"><path class="cls-5" d="M116.69,165.78c0-2.74,40.57-11.48,49.74-11.48"/><path class="cls-6" d="M117.37,162.15c0-2.18,43.51-15.75,49.51-15.75"/><path class="cls-7" d="M117.37,162.15c0-1.78,43.22-10.57,49.07-10.57"/><path class="cls-7" d="M117.67,160.78c0-3,43.62-17.91,50.7-17.91"/><path class="cls-7" d="M116.69,165.78c0-1.13,46.5-8,52.37-8"/><path class="cls-8" d="M116.69,147.78a13.22,13.22,0,0,1,5.5-8.59,11.77,11.77,0,0,1,4.6-1.74"/><path class="cls-8" d="M115.28,145c.15-.8,1.18-5.69,5.64-8.12a10.59,10.59,0,0,1,4.83-1.26"/><path class="cls-9" d="M115.28,145a16.34,16.34,0,0,1,5.39-10.64,15.32,15.32,0,0,1,6.09-3.16"/><path class="cls-10" d="M118.62,136.51a4,4,0,0,0-1,1.8"/><path class="cls-9" d="M97.94,18.78c2,.59,35.75,11.34,44.46,44.11,7.2,27.1-5.9,57.39-32.67,72.76"/><path class="cls-11" d="M108.1,12.78c24,7.35,41.27,27,43.39,49.08C154.3,91,130.26,121.09,94.9,125.24"/><path class="cls-11" d="M103.73,15.34c3,.87,33.67,10.21,42.71,37.92S139.31,116,105.31,131.2"/><path class="cls-12" d="M159,37.07c4.3,5.75,15.42,22.27,12,41.19-4.86,26.68-37.06,49.18-78.08,46.31"/><path class="cls-13" d="M103.87,130c17.14,0,91.3-30.16,91.3-39.45"/><path class="cls-14" d="M107.72,133.4a121.75,121.75,0,0,0,56.91-20.77,120.21,120.21,0,0,0,29.56-29.28"/><path class="cls-15" d="M77.24,128.09c33.27,6.88,58.65,2.58,72.47-.94,14.54-3.7,46.69-32.26,47-33.7"/><path class="cls-16" d="M64.43,113.21c9.47,3,40.19,11.4,74.27-2.83,22-9.17,59.44-5.3,66.15-13.57"/><path class="cls-16" d="M62.13,119.55c1.43,0,7.2,5.32,7.2,6.65"/><path class="cls-16" d="M61.08,121.21c.93,0,4.65,6.22,4.65,7.76"/><path class="cls-16" d="M59.78,122.87c.94,0,4.73,4.89,4.73,6.1"/><path class="cls-17" d="M61.08,121.21c1.32,0,6.64,4.61,6.64,5.75"/><path class="cls-17" d="M58.65,124.09c1,0,4.76,5.69,4.76,7.1"/><path class="cls-17" d="M57.55,125.1A5.21,5.21,0,0,1,59,126.87c1.24,2.45.34,5.87-2.14,8.74"/><path class="cls-17" d="M56.14,126.2c1.19,0,6,4,6,5"/><path class="cls-18" d="M97.94,188.67c-2.29,5.75-2.72,10.26-1,11.39.41.27,1.18.5,2.67,0"/><path class="cls-18" d="M96.18,189.44a15.47,15.47,0,0,0-3,11.61A15.18,15.18,0,0,0,98,209.83"/><path class="cls-19" d="M80.51,191.94a33.75,33.75,0,0,0,4,25.28c8.19,13.05,22.4,14.94,24.25,15.16"/><path class="cls-19" d="M76.72,191.94a35.08,35.08,0,0,0,8.34,37.4c13.89,13.3,32.68,8.4,33.57,8.16"/><path class="cls-20" d="M73,190.37a46.42,46.42,0,0,0-3.7,36"/><path class="cls-20" d="M75.31,191a34.17,34.17,0,0,0,0,38.48"/><path class="cls-20" d="M50.73,168.48a9.2,9.2,0,0,0-7.36,2c-3.12,2.69-3.44,6.56-3.56,8.6a15.87,15.87,0,0,0,2,8.61"/><path class="cls-20" d="M56.14,178.58a27.35,27.35,0,0,0-10,33.57"/><path class="cls-20" d="M52.47,172.78a24,24,0,0,0-7.65,12.52,9.34,9.34,0,0,1-2.7-5.51c-.41-4.43,3-9.13,8.61-11.23"/><path class="cls-20" d="M50,162.55a17.94,17.94,0,0,0-9.33,5c-5.87,6.19-6.5,17-1.33,26.94"/><path class="cls-21" d="M49.63,164.37a14.24,14.24,0,0,0-6.77,3.32c-5.31,4.81-6.42,14-2.77,23"/><path class="cls-21" d="M53.92,175.38a26,26,0,0,0-7.5,9.24"/><path class="cls-21" d="M40.3,199.63a17.77,17.77,0,0,0,1,10.2"/><path class="cls-21" d="M69.37,189.5a20.49,20.49,0,0,0-10.08-1.18c-9.21,1.37-16.8,10-18,21.51"/><path class="cls-21" d="M39.5,196l-1.68,12.39"/><path class="cls-22" d="M39.46,193.23l-5.3,12.38"/><path class="cls-22" d="M49,157.58c0,2.12-34.45,19.19-38.73,19.19"/><path class="cls-23" d="M49,155.78a40.31,40.31,0,0,1-23.26,5"/><path class="cls-23" d="M23.43,167.11A95.84,95.84,0,0,0,49,157.57"/><path class="cls-23" d="M10.23,183.36c0-2.48,34.45-22.42,38.73-22.42"/><path class="cls-23" d="M49,160.94c-4.28,0-38.73,27.15-38.73,30.53l103.14,61"/><path class="cls-23" d="M39.37,194.51a44.84,44.84,0,0,1-26.19-1.29"/><path class="cls-23" d="M39.37,194.51a21.25,21.25,0,0,1-8.07,3.39,21.78,21.78,0,0,1-13-1.67"/><path class="cls-24" d="M10.23,134.28c.19,1.6,1.59,11.72,10.41,17.5,8.4,5.5,20.1,4.8,29-2"/><path class="cls-24" d="M25.19,159.36A46.36,46.36,0,0,0,49,155.78"/><path class="cls-25" d="M86.82,191.94a40.7,40.7,0,0,0-3.28,30.84c4.87,16.06,18.08,22.94,20.33,24.06"/><path class="cls-25" d="M110.45,136.51c0-.25,13.62-2.23,15.31-2.23"/><path class="cls-25" d="M99.66,188.12a40.77,40.77,0,0,0,2.18,7.24"/><path class="cls-25" d="M101.83,186.51c0,.5,2.77,4.48,3.12,4.48"/><path class="cls-25" d="M105,184.62a13.81,13.81,0,0,0,2.77,3.5"/><path class="cls-25" d="M107.72,181.78a12.16,12.16,0,0,0,2.73,2.86"/><path class="cls-26" d="M106,183.36a13.25,13.25,0,0,0,3.07,3"/><path class="cls-26" d="M100.75,187.18c0,.42,3.74,3.81,4.2,3.81"/><path class="cls-26" d="M58.24,181.78a21.54,21.54,0,0,0-8.47,8.77c-4.05,8-2.34,18.42,4.15,26.78"/><path class="cls-21" d="M101.83,16.46c26.89-.32,50.87,16.72,59,41.6,8.74,26.7-2.62,56.7-27.56,71.41"/><path class="cls-21" d="M101.83,16.46a62.39,62.39,0,0,1,2,113.58"/><path class="cls-27" d="M64.65,106.69c7.43,2.81,44.2,15.85,81.29-2.66C163,95.5,193.06,103,199,95"/><path class="cls-27" d="M207.9,96.78c-1,9-31.85,7.32-44.53,25.41a99,99,0,0,1-45.7,35.36"/><path class="cls-28" d="M117.62,152.08c6.78-.49,38.67-3.5,61.67-30.37A87.54,87.54,0,0,0,199,78.42"/><path class="cls-28" d="M136.37,137.41a66,66,0,0,0,57.82-54.07"/><path class="cls-28" d="M136,132.28a66.89,66.89,0,0,0,58.22-48.94"/><path class="cls-16" d="M64.37,117.19l14.06,5.88"/></g><g id="Calque_4" data-name="Calque 4"><circle class="cls-29" cx="204.85" cy="86.15" r="10.66"/><circle class="cls-29" cx="179.75" cy="149.8" r="13.32"/><path class="cls-30" d="M126.79,181a28.85,28.85,0,1,1-28.85,28.85h0A28.85,28.85,0,0,1,126.79,181Z"/><circle class="cls-30" cx="131.06" cy="134.28" r="5.3"/><circle class="cls-30" cx="83.31" cy="157.58" r="34.36" transform="translate(-85.58 214.57) rotate(-80.78)"/><circle class="cls-29" cx="59.14" cy="62.17" r="13.32"/><path class="cls-31" d="M37.81,76.22A28.85,28.85,0,1,1,9,105.08H9A28.85,28.85,0,0,1,37.81,76.22Z"/><circle class="cls-29" cx="19.51" cy="162.15" r="6.33"/><circle class="cls-4" cx="83.31" cy="157.58" r="34.36" transform="translate(-85.58 214.57) rotate(-80.78)"/><path class="cls-32" d="M126.79,181a28.85,28.85,0,1,1-28.85,28.85h0A28.85,28.85,0,0,1,126.79,181Z"/><circle class="cls-33" cx="179.75" cy="149.8" r="13.32"/><circle class="cls-34" cx="59.14" cy="62.17" r="13.32"/><circle class="cls-34" cx="19.51" cy="162.15" r="6.33"/><circle class="cls-4" cx="131.06" cy="134.28" r="5.3"/><circle class="cls-33" cx="204.85" cy="86.15" r="10.66"/><path class="cls-33" d="M37.81,76.22A28.85,28.85,0,1,1,9,105.08H9A28.85,28.85,0,0,1,37.81,76.22Z"/></g><g id="Calque_6" data-name="Calque 6"><rect class="cls-35" x="10.53" y="93.45" width="54.57" height="23.24"/><g class="cls-36"><path d="M17.66,119.55V88.3H20.9v17.21H21a6.74,6.74,0,0,1,5.87-3.31,7.11,7.11,0,0,1,5.72,2.61,9.31,9.31,0,0,1,2.2,6.21,9.9,9.9,0,0,1-2.16,6.46,7.22,7.22,0,0,1-5.9,2.64,6.3,6.3,0,0,1-3.23-.86,7.75,7.75,0,0,1-2.5-2.34H20.9v2.63Zm8.39-2.31a4.91,4.91,0,0,0,4-1.76,6.62,6.62,0,0,0,1.46-4.36,6.42,6.42,0,0,0-1.48-4.3,5,5,0,0,0-4-1.74,4.74,4.74,0,0,0-3.87,1.78,6.53,6.53,0,0,0-1.46,4.26,6.7,6.7,0,0,0,1.44,4.32A4.72,4.72,0,0,0,26.05,117.24Z"/><path d="M38.68,93.39a2.15,2.15,0,0,1,1.59-.66,2.13,2.13,0,0,1,1.58.66A2.24,2.24,0,0,1,42.5,95a2.22,2.22,0,0,1-2.23,2.19,2.14,2.14,0,0,1-1.59-.65A2.09,2.09,0,0,1,38,95,2.23,2.23,0,0,1,38.68,93.39Zm3.21,9.31v16.85H38.65V102.7Z"/><path d="M48.17,104.79a9.18,9.18,0,0,1,12.78,0,9,9,0,0,1-6.39,15.33,9,9,0,0,1-6.39-15.33ZM58.63,107a5.65,5.65,0,0,0-8.14,0,5.89,5.89,0,0,0,0,8.26,5.61,5.61,0,0,0,8.14,0,5.89,5.89,0,0,0,0-8.26Z"/></g><rect class="cls-35" x="51.23" y="138.02" width="64.17" height="34.86"/><g class="cls-36"><path d="M85.38,159.57l17.13,23.62H94.3l-16-23H75.51v23H68.74V128.9H77c2.07,0,3.73,0,5,.11a31.23,31.23,0,0,1,4.6.68,16.42,16.42,0,0,1,4.72,1.73,13.83,13.83,0,0,1,5.22,5.47,15.54,15.54,0,0,1,1.91,7.49,15.33,15.33,0,0,1-3.6,10.19A14.15,14.15,0,0,1,85.38,159.57ZM75.51,135V154.6h2.16a32.39,32.39,0,0,0,5.22-.36,18.47,18.47,0,0,0,4.5-1.33,7.31,7.31,0,0,0,3.46-3.06,10.16,10.16,0,0,0,1.22-5.18q0-9.72-14.76-9.72Z"/></g><rect class="cls-35" x="100.01" y="195.43" width="53.56" height="28.8"/><g class="cls-36"><path d="M117.65,200.46V217q0,4.8-1.8,7.38t-6.41,2.6a8.36,8.36,0,0,1-5.83-2.06,7.24,7.24,0,0,1-2.3-5.58h3.24a4.51,4.51,0,0,0,1.38,3.5,5.23,5.23,0,0,0,3.66,1.26c1.84,0,3.11-.55,3.79-1.62a8.51,8.51,0,0,0,1-4.58v-3.2h-.07a7.75,7.75,0,0,1-2.5,2.34,6.3,6.3,0,0,1-3.23.86,7.22,7.22,0,0,1-5.9-2.64,9.9,9.9,0,0,1-2.16-6.46,9.31,9.31,0,0,1,2.2-6.21,7.11,7.11,0,0,1,5.72-2.61,6.65,6.65,0,0,1,5.87,3.38h.07v-2.88ZM109.12,215a4.91,4.91,0,0,0,4-1.76,6.64,6.64,0,0,0,1.46-4.36,6.42,6.42,0,0,0-1.48-4.3,5,5,0,0,0-4-1.74,4.74,4.74,0,0,0-3.87,1.78,6.53,6.53,0,0,0-1.46,4.26,6.7,6.7,0,0,0,1.44,4.32A4.72,4.72,0,0,0,109.12,215Z"/><path d="M136.66,209.42H123.81a6,6,0,0,0,1.44,3.93,4.53,4.53,0,0,0,3.63,1.65,4.87,4.87,0,0,0,2.9-.81,8.16,8.16,0,0,0,2.14-2.46l2.74,1.55a8.79,8.79,0,0,1-7.81,4.6,7.68,7.68,0,0,1-6-2.52,9.15,9.15,0,0,1-2.25-6.33,9.79,9.79,0,0,1,2.12-6.55,7.51,7.51,0,0,1,6.08-2.52,7.08,7.08,0,0,1,5.87,2.5,9.94,9.94,0,0,1,2,6.46ZM124,207h9.43a5,5,0,0,0-1.51-3.08,4.43,4.43,0,0,0-3.14-1.14,4.58,4.58,0,0,0-3.18,1.19A5,5,0,0,0,124,207Z"/><path d="M140.53,202.55a9.08,9.08,0,1,1-2.61,6.37A8.71,8.71,0,0,1,140.53,202.55ZM151,204.78a5.65,5.65,0,0,0-8.14,0,5.89,5.89,0,0,0,0,8.26,5.61,5.61,0,0,0,8.14,0,5.89,5.89,0,0,0,0-8.26Z"/></g></g><path class="cls-4" d="M78.3,123.63a92.08,92.08,0,0,1,23.86-54.19c24.39-26.29,55.94-28.6,62.62-28.94"/><line class="cls-33" x1="10.23" y1="191.47" x2="113.37" y2="252.45"/><circle class="cls-37" cx="50.04" cy="194.51" r="10.66"/><line class="cls-38" x1="112.91" y1="9.93" x2="10.23" y2="70.44"/></svg>